<?xml version="1.0" encoding="UTF-8"?><svg xmlns="http://www.w3.org/2000/svg" viewBox="0 0 101.08 101.06"><defs><style>.d{fill:#63b55d;}.e{fill:#fdd98f;}.f{fill:#4aae42;}.g{fill:#fccd6d;}.h{fill:#29a73b;}</style></defs><g id="a"/><g id="b"><g id="c"><g><path class="g" d="M101.08,50.51c-.18,13.95-5.07,25.99-14.81,35.74-9.84,9.85-21.98,14.87-36.02,14.81-13.82-.06-25.77-5.07-35.45-14.75C4.91,76.41-.12,64.2,0,50.08,.12,36.33,5.1,24.44,14.74,14.81,24.7,4.87,36.96-.17,51.16,0c13.66,.17,25.47,5.17,35.06,14.74,9.81,9.79,14.69,21.9,14.86,35.77m-32.44,23.42c1.51-.03,3.01-.06,4.52-.08,.71,0,1.29-.16,1.44-.99,.18-1.01-.02-1.32-1.16-1.83-.13-.45-.52-.33-.83-.36,1.05-1.52,2.06-3.07,3.19-4.53,.46-.59,.44-1.5,1.24-1.84,.52,.03,1.17,.14,1.33-.47,.3-1.15,1.18-2.13,.99-3.42,.06-.03,.16-.04,.18-.08,1.1-3.03,1.49-6.21,1.71-9.39,.22-3.11-.29-6.22-1.23-9.14-1.07-3.36-2.58-6.57-5.23-9.1-.7-.67-1.7-.97-2.19-1.86-.03-.58-.45-.43-.79-.44h0c.1-.43-.11-.72-.4-1.03-1.05-1.15-2.33-2.03-3.57-2.95-2.27-1.67-4.77-2.91-7.38-3.92-2.13-.82-4.37-1.42-6.61-1.54-3.54-.19-7.12-.36-10.58,.75-1.7,.54-3.56,.72-4.99,1.97-.77,.72-1.84,.74-2.75,1.16-5.24,2.44-9.51,6.02-12.63,10.89-1.51,2.36-2.53,4.88-2.42,7.79,.05,1.3,.3,2.56,.43,3.84,0,1.82,0,3.63,0,5.45,.02,2.47,.79,4.79,1.43,7.13,0,.03,.12,.04,.18,.06,.05,.79-.7,1.17-.94,1.83-.38,1.04-.11,1.74,.87,2.3,.69,.4,1.04-.37,1.59-.26,.97,2.25,2.51,4.12,3.99,6.03-.36,.53-.72,1.06-1.09,1.59-.69,1.01-.68,.99,0,1.81,1.75,2.12,3.58,4.13,5.77,5.83,2.93,2.27,5.97,4.25,9.55,5.34,1.97,.6,3.99,.89,6,1.29,2.02,.4,3.86-.01,5.76-.2,.76-.07,1.6-.35,2.38-.68,3.64-1.54,5.94-4.23,7.18-7.92,1.99-.52,3.6-1.69,5.08-3.06m-17.68,18.47c3.68,.25,7.69-.45,11.62-1.61,5.91-1.74,11.17-4.7,15.77-8.77,3.28-2.9,5.99-6.29,8.28-10.08,2.94-4.87,4.54-10.17,5.6-15.68,.13-.7-.52-1.64-1.17-1.78-1.02-.22-1.46,.11-1.91,1.11-.52,1.15-.43,2.4-.71,3.59-1.65,7.02-5.03,13.08-9.9,18.35-1.47,1.59-3.19,2.88-4.9,4.19-5.44,4.18-11.64,6.65-18.38,7.4-3.6,.4-7.3,.41-10.96-.24-3.24-.58-6.38-1.41-9.38-2.76-6.21-2.79-11.41-6.83-15.5-12.33-3.81-5.11-6.35-10.71-7.21-17.05-.05-.35-.22-.6-.34-.9-.29-.7-.86-.95-1.54-.95-.59,0-1.22,.8-1.28,1.51-.02,.26,0,.53,0,.79,0,1.64,.55,3.17,1,4.7,1.68,5.69,4.31,10.85,8.16,15.44,3.61,4.31,7.83,7.76,12.78,10.36,6.11,3.22,12.59,4.9,19.97,4.69M14.17,26.82c-3.1-.33-6,2.32-6.14,5.86-.05,1.35,.37,2.9,1.57,4.02,1.28,1.2,2.61,1.95,4.44,2.03,3.26,.13,6.1-2.86,6.11-5.92,.01-3.63-3.21-6.38-5.98-5.99m27.62-15.42c-.05,1.57-.13,1.62-.76,2.28-.65,.68-1.44,.55-2.2,.52-1.73-.07-2.94-1.43-2.93-3.22,.01-1.79,1.24-3.08,2.99-3.14,.39-.01,.79,.05,1.18,0,.73-.08,1.31-.72,1.36-1.41,.05-.67-.2-1.15-.89-1.31-2.43-.58-4.81,.43-6.27,2.5-1.58,2.24-1.4,4.39-.09,6.69,1.34,2.36,4.8,3.23,6.95,2.36,3.05-1.23,4.36-3.87,3.36-6.95-.19-.6-.36-1.49-1.34-1.46-1.39,.04-2.63,.53-3.72,1.39-.49,.39-.47,.96-.32,1.45,.17,.52,.63,.77,1.24,.74,.47-.02,.9-.09,1.43-.45M15.78,48.5c.02-2.56-1.76-4.48-4-4.25-.76,.08-1.47,.6-2.18,.67-.69,.08-1.43-.43-2.16-.67-.12-.04-.26-.02-.39,0-1.52,.21-2.7,1.39-3.14,3.01-.19,.69-.25,1.4-.42,2.07-.15,.6-.31,1.1,.09,1.6,.42,.53,1.02,.69,1.68,.78,2.67,.39,5.34,.83,8,1.28,1.13,.19,1.88-.07,2-1.09,.13-1.16,.66-2.25,.52-3.4m69.07-11.38c1.9,.14,3.08-.87,3.76-2.5,.26-.62,.51-.96,1.21-1.21,2.01-.72,2.75-2.88,1.68-4.8-.47-.84-1.01-1.67-1.62-2.42-.77-.93-1.32-.98-2.3-.3-1.76,1.21-3.5,2.44-5.23,3.69-.69,.49-1.37,1-1.99,1.56-.84,.76-.87,1.33-.23,2.2,.5,.68,1.09,1.31,1.52,2.03,.74,1.24,1.79,1.81,3.21,1.75M26.41,24.09c-.06-.28-.05-.78-.18-1.3-.58-2.21-2.17-3.54-4-4.52-1.32-.71-2.79-.76-4.23,.12-1.26,.77-2.15,1.89-3.15,2.9-.5,.51-.42,1.2,.12,1.75,.6,.61,1.2,1.21,1.8,1.81,1.39,1.39,2.76,2.8,4.17,4.16,.92,.89,1.77,.87,2.7-.01,.53-.49,1.08-.97,1.52-1.54,.71-.92,1.37-1.89,1.24-3.38m46.01-3.18c.59,.22,1.3-.13,2-.49,1.77-.92,2.78-2.43,3.35-4.31,.8-2.64,.24-4.36-2.01-5.86-.59-.39-1.19-.79-1.81-1.13-1.29-.68-1.73-.59-2.59,.66-.58,.85-1.03,1.78-1.54,2.68-.82,1.46-1.63,2.92-2.46,4.38-.42,.74-.63,1.68,.07,2.13,1.45,.91,2.86,2.05,4.99,1.95m-20.01-10.06c.25-.22,.34-.32,.45-.4,1.58-1.08,2.43-2.82,1.91-4.26-.57-1.57-2.02-2.94-4.04-2.69-.58,.07-1.18,0-1.77,.01-1.5,.03-1.97,.48-1.98,1.99-.02,2.62,0,5.24,0,7.86,0,.26-.04,.53,0,.78,.16,.77,.99,1.34,1.74,1.23,.82-.12,1-.67,1-1.4,0-.56-.14-1.14,.19-1.83,.77,.98,1.72,1.66,2.35,2.69,.44,.72,1.69,.76,2.24,.22,.51-.5,.53-1.2-.11-1.9-.66-.72-1.06-1.65-1.98-2.31m32.04,9.44c.02-1.35-1-2.1-2.22-1.61-1.07,.43-2.1,.96-3.15,1.44-1.69,.77-3.38,1.56-5.08,2.29-.37,.16-.68,.36-.97,.62-.53,.46-.55,1.04-.3,1.61,.29,.65,.94,.76,1.51,.57,.55-.18,1.17-.65,1.65-.33,.8,.54,1.51,1.27,2.13,2.02,.47,.58-.01,1.18-.19,1.81-.35,1.21,.39,1.73,1.44,1.71,.95-.02,1.19-.69,1.46-1.33,1.04-2.48,2.12-4.95,3.31-7.37,.22-.45,.58-.89,.43-1.42m-18.56-5.46c-.27-1.4-.35-3.27-.49-5.14-.07-1.01-.3-2.03-.3-3.07,0-.78-.49-1.29-1.1-1.46-.62-.17-1.28-.22-1.84,.58-1.43,2.08-3.06,4.01-4.53,6.06-.48,.68-1.16,1.22-1.46,2.04-.18,.49-.16,.85,.17,1.25,.72,.86,1.29,.96,2.08,.03,.86-1.01,1.69-1.08,2.9-.69,1.14,.37,2.02,.63,1.86,2.11-.06,.55,.89,1.21,1.37,1.19,.6-.02,1.26-.73,1.33-1.45,.03-.32,0-.65,0-1.45m26.6,33.83c.49-.25,1.03-.09,1.54-.12,.04,0,.1,.08,.14,.13,.36,.38,0,.91,.27,1.3,.24,.35,.2,.74,.28,1.12,.18,.82,.61,1.11,1.37,1.01,.75-.1,1.58-1,1.3-1.63-.46-1.03-.24-2.06-.31-3.08-.09-1.39-1.13-2.31-2.46-1.89-.65,.2-1.26,.31-1.9,.28-2.02-.09-3.98,.51-6.02,.46-1.33-.03-1.75,.75-1.53,2.16,.08,.51,.05,1.04,.07,1.56,.01,.52-.04,1.06,.04,1.57,.11,.83,.85,1.41,1.63,1.35,.78-.05,1.07-.44,1.1-1.5,.01-.59,0-1.18-.02-1.77-.01-.28,.04-.53,.3-.66,.68-.34,1.55,.09,1.67,.83,.05,.32,0,.66,.03,.98,.08,1.03,.34,1.3,1.25,1.35,.84,.05,1.37-.31,1.47-1.18,.09-.75,.07-1.52-.2-2.27M27.93,14.67c-.14-.22-.21-.39-.33-.53-.56-.65-.44-1.14,.32-1.53,.51-.27,1.04-.54,1.48-.91,.6-.5,.62-1.63,.06-2.04-.51-.37-1.16-.35-1.67-.08-1.09,.57-2.23,1.03-3.2,1.83-.86,.71-1.02,1.1-.5,2.06,.97,1.82,1.91,3.66,3,5.41,.58,.92,.93,2.01,1.81,2.75,.43,.36,.82,.63,1.39,.3,1.17-.67,2.38-1.3,3.54-2,.56-.34,.72-1.32,.43-1.95-.26-.55-1-.81-1.7-.51-.47,.2-.88,.54-1.33,.8-.81,.48-1.07,.45-1.57-.39-.12-.2-.43-.48-.28-.81,.78-.4,1.55-.74,2.13-1.39,.44-.49,.69-.97,.18-1.54-.44-.49-.87-1-1.66-.54-.66,.39-1.36,.7-2.09,1.07m58.91,26.94c1.35-.74,2.9-.89,4.34-1.34,1.03-.32,2.11-.49,3.14-.82,.62-.2,1.16-.63,1.17-1.4,0-.61-.47-.92-.9-1.2-.4-.27-.86-.14-1.31-.02-1.42,.38-2.8,.86-4.25,1.14-1.37,.26-2.71,.7-4.05,1.11-.87,.27-1.42,.88-1.29,1.47,.25,1.12,.62,2.2,.82,3.34,.12,.71,1.1,1.22,1.66,1.06,.78-.22,.99-.64,1.05-1.61,.04-.62-.37-1.09-.4-1.74m-72.29,1.81c.52,0,.65,0,.78,0,.92-.01,1.41-.33,1.59-1.05,.17-.65-.19-1.21-1.17-1.51-.91-.28-1.86-.45-2.8-.58-2.03-.28-4.04-.59-6.03-1.08-.77-.19-1.61,.3-1.82,1.03-.21,.75,.16,1.22,.96,1.62,.97,.49,2.02,.31,3.02,.55,1.92,.45,3.89,.73,5.46,1.02"/><path class="e" d="M77.04,64.31c-.81,.34-.78,1.24-1.24,1.84-1.13,1.46-2.13,3.01-3.19,4.53-2.43,0-4.85,.02-7.28,.02-1.23,0-1.17-.03-1.42-1.18-.54-2.48-1.47-4.78-3.27-6.64-2.61-2.7-5.9-3.78-9.53-4.01-2.4-.15-4.81,.25-7.06,.9-6.2,1.77-11.47,5.14-15.65,10.12-.13,.01-.25,.03-.37,.06-1.48-1.91-3.01-3.79-3.99-6.03,1.51-2.79,3.06-5.56,4.76-8.24,.67,.21,1.33,.43,2,.62,4.72,1.33,8.91,.38,12.44-3.06,1.91-1.86,3.2-4.14,4.14-6.65,.93-2.46,1.7-4.97,1.9-7.58,.28-3.63,.05-7.26-.81-10.81-.27-1.12-.45-2.33-1.12-3.35,.11-.77-.38-1.35-.62-2.01-.2-.57-.5-.79-1.15-.76-1.17,.07-2.26,.48-3.41,.63-1.34,.17-2.54,.91-3.91,.98,1.43-1.25,3.29-1.43,4.99-1.97,3.45-1.1,7.04-.94,10.58-.75,2.25,.12,4.49,.73,6.62,1.54,2.61,1,5.11,2.24,7.38,3.92,1.24,.92,2.52,1.79,3.57,2.95,.28,.31,.5,.6,.4,1.04-.25-.06-.51-.08-.74-.18-1.62-.67-3.36-1.02-5.06-.94-1.43,.07-2.95,.22-4.31,.85-.45,.21-.86,.26-1.32,.24-1.45-2.5-2.87-5.01-4.35-7.49-.47-.8-1.41-1.05-2.15-.7-.57,.27-.86,1.25-.52,2.08,.27,.65,.66,1.25,1.01,1.86,1.11,1.95,2.22,3.9,3.33,5.85-.68,.71-1.37,1.4-2.03,2.12-3.26,3.55-4.36,7.59-2.87,12.28,1.5,4.71,4.59,8.25,8.35,11.21,3.93,3.1,8.43,5.08,13.39,5.97,.69,.71,1.82-.04,2.5,.74"/><path class="d" d="M28.4,69.87c4.18-4.98,9.44-8.35,15.65-10.12,2.25-.64,4.66-1.04,7.06-.9,3.63,.22,6.93,1.31,9.53,4.01,1.8,1.86,2.73,4.16,3.27,6.64,.25,1.15,.19,1.18,1.41,1.19,2.43,0,4.85,0,7.28-.02,.31,.04,.7-.08,.83,.37-8.27,0-16.54,0-24.81,.05-.81,0-1.34-.24-1.88-.8-1.27-1.33-2.57-2.62-3.9-3.9-.62-.6-1.3-.62-1.91-.16-.82,.62-.81,.93-.35,1.99,.23,.52,.65,.8,.96,1.2,.34,.45,.95,.71,1.05,1.36-.38,.45-.86,.27-1.29,.28-1.57,.02-3.15-.02-4.73,.02-.7,.02-1.43,.71-1.49,1.29-.07,.64,.71,1.39,1.53,1.46,.33,.03,.66,0,.98,0h16.96c-.66,.68-1.15,1.18-1.63,1.69-1.19,1.29-2.61,2.38-3.64,3.83-1.67-.02-3.26-.45-4.88-.77-3.54-.7-6.69-2.27-9.72-4.15-1.92-1.19-3.72-2.51-5.3-4.13-.29-.3-.6-.49-1.03-.43"/><path class="d" d="M60.38,30.39c.46,.02,.87-.03,1.31-.24,1.35-.63,2.87-.78,4.31-.85,1.7-.08,3.44,.26,5.06,.94,.23,.1,.5,.12,.74,.18h0c.08,.47,.49,.36,.79,.43,.49,.9,1.49,1.19,2.2,1.86,2.65,2.53,4.16,5.74,5.23,9.1,.93,2.93,1.45,6.04,1.23,9.14-.22,3.18-.61,6.36-1.71,9.39-.01,.04-.11,.05-.18,.08-2.77-.06-5.1-1.48-7.47-2.61-1.93-.92-3.7-2.22-5.4-3.6-2.28-1.85-4.27-3.88-5.72-6.44-.13-.62,.33-1.08,.44-1.65,.3-1.61,1.02-3.12,1.19-4.78,.03-.24,.35-.4,.62-.15,.19,.17,.38,.37,.5,.59,2.64,4.58,5.29,9.15,7.86,13.78,.33,.59,.78,.77,1.22,1.11,.62,.48,.91-.32,1.39-.29,.02-.54,.89-.78,.4-1.53-.69-1.07-1.07-2.31-1.81-3.37-.44-.62-.8-1.31-1.12-2-.11-.23,.17-.64,.39-.46,.61,.48,1.4,.17,2.01,.57,.46,.3,1.02,.31,1.46-.03,.45-.35,.9-.72,.85-1.44-.05-.72-.46-.95-1.03-1.23-1.22-.59-2.53-.82-3.83-1.07-1.74-.34-3.02-1.18-3.71-2.85-.22-.53-.48-1.04-.77-1.54-2.15-3.68-4.31-7.36-6.47-11.04"/><path class="h" d="M50.96,92.4c-7.38,.21-13.86-1.47-19.97-4.69-4.95-2.61-9.17-6.05-12.78-10.36-3.84-4.59-6.48-9.76-8.15-15.44-.45-1.53-1-3.06-1-4.7,0-.26-.03-.53,0-.79,.06-.71,.69-1.51,1.28-1.51,.67,0,1.25,.25,1.54,.95,.12,.3,.3,.55,.34,.9,.86,6.33,3.41,11.94,7.21,17.05,4.09,5.49,9.29,9.53,15.5,12.33,3,1.35,6.13,2.18,9.38,2.76,3.66,.66,7.36,.65,10.96,.24,6.74-.76,12.93-3.22,18.38-7.4,1.71-1.31,3.43-2.6,4.9-4.19,4.87-5.27,8.25-11.33,9.9-18.35,.28-1.19,.19-2.44,.71-3.59,.45-1.01,.89-1.34,1.91-1.11,.65,.14,1.31,1.08,1.17,1.78-1.06,5.51-2.65,10.81-5.6,15.68-2.29,3.78-5,7.18-8.28,10.08-4.6,4.06-9.86,7.03-15.77,8.77-3.93,1.16-7.94,1.86-11.62,1.61"/><path class="f" d="M28.4,69.87c.43-.07,.74,.12,1.03,.43,1.58,1.62,3.38,2.95,5.3,4.13,3.03,1.88,6.18,3.45,9.72,4.15,1.62,.32,3.22,.75,4.88,.77-.19,.91,.3,1.53,1.01,1.89,.73,.37,1.32-.26,1.86-.64,.68-.47,1.08-1.27,1.86-1.64,2.8-.13,5.01-1.54,7.03-3.31,.54-.47,1.37-.85,1.26-1.82,.67,0,1.35,.01,2.02,.02-.6,.96-.4,2.12-.8,3.14-1.23,3.69-3.54,6.39-7.18,7.92-.78,.33-1.62,.61-2.38,.68-1.9,.18-3.74,.6-5.76,.2-2.01-.4-4.03-.69-6-1.29-3.57-1.09-6.62-3.07-9.55-5.34-2.19-1.7-4.02-3.71-5.77-5.83-.67-.82-.68-.81,0-1.81,.36-.53,.72-1.06,1.09-1.59,.12-.03,.25-.05,.37-.06"/><path class="f" d="M60.77,47.76c1.45,2.56,3.44,4.59,5.72,6.44,1.7,1.38,3.47,2.67,5.4,3.6,2.37,1.13,4.7,2.55,7.46,2.61,.19,1.29-.69,2.27-.99,3.42-.16,.61-.81,.5-1.33,.47-.68-.78-1.81-.02-2.5-.74-4.95-.89-9.46-2.87-13.39-5.97-3.76-2.97-6.85-6.51-8.35-11.21-1.49-4.68-.39-8.73,2.87-12.28,.66-.72,1.35-1.42,2.03-2.12,.41,.45,.7,.94,.69,1.57-.04,.38,0,.74-.14,1.13-.43,1.19-.64,2.42-.69,3.71-.07,1.88,.34,3.65,.82,5.42,.23,.88-.35,1.61-.41,2.45-.06,.76,.26,1.24,.79,1.68,.52,.42,.95,.23,1.41-.12,.13-.1,.38-.04,.58-.06"/><path class="f" d="M38.27,23.69c1.37-.07,2.56-.81,3.91-.98,1.15-.15,2.24-.56,3.41-.63,.65-.04,.95,.19,1.15,.76,.24,.66,.73,1.24,.62,2.01,0,.97-.78,1-1.43,1.21-5.46,1.73-10.27,4.51-14.23,8.71-1.05,1.12-1.83,2.44-2.9,3.53-.19,0-.39,.02-.58,0-1.56-.2-1.84,.4-1.82,1.93,0,.86,.63,1.56,.43,2.42-1.06,1.78-1.31,3.8-1.1,5.74,.15,1.37,.3,2.87,1.1,4.12,.07,.66-.27,1.03-.87,1.22-.19-.04-.42-.02-.55-.13-1.6-1.4-2.97-2.96-3.89-4.92-.2-.42,.07-1.11-.62-1.29-.13-1.28-.38-2.54-.43-3.84-.11-2.91,.91-5.44,2.42-7.8,3.12-4.87,7.39-8.45,12.63-10.89,.91-.42,1.98-.44,2.75-1.16"/><path class="h" d="M26.83,42.63c.19-.86-.42-1.56-.43-2.42-.01-1.53,.26-2.13,1.82-1.93,.19,.02,.39,0,.58,0,1.06,2.24,1.11,4.79,2.11,7.07,.32-.23,.51-.45,.67-.76,1-1.99,2.28-3.83,3.31-5.82,1.24-2.37,2.76-4.6,4.03-6.96,.34-.62,.9-1.07,1.14-1.78,.17-.49,1.4-.64,1.95-.38s.61,.76,.62,1.32c.01,.77-.39,1.32-.76,1.93-.8,1.32-1.75,2.58-2.28,4.06,.95,.45,1.65-.48,2.5-.28,.45,.1,.72-.7,1.22-.25,.39,.35,.75,.74,1.12,1.11,.16,.16,.2,.38,.08,.53-.41,.52-.45,1.28-1.41,1.42-1.55,.24-3.07,.74-4.59,1.14-.68,.18-1.4,.36-1.78,1.03-2.65,4.65-5.29,9.31-7.93,13.97-1.7,2.68-3.25,5.45-4.76,8.24-.55-.11-.9,.65-1.59,.26-.97-.56-1.25-1.26-.87-2.3,.24-.66,1-1.04,.94-1.83,1.4-1.76,2.27-3.84,3.45-5.73,.08-.14,0-.38,0-.57,.6-.18,.93-.56,.87-1.22,.77-.76,1.26-1.7,1.71-2.66,.11-.23,.31-.42,.2-.7-.83-2.11-.93-4.44-1.92-6.51"/><path class="h" d="M54.06,78.96c-.78,.37-1.18,1.17-1.86,1.64-.55,.38-1.13,1.01-1.86,.64-.71-.36-1.2-.98-1.01-1.89,1.03-1.45,2.44-2.54,3.64-3.83,.48-.52,.97-1.01,1.63-1.69h-16.96c-.33,0-.66,.02-.98,0-.82-.07-1.59-.82-1.53-1.46,.06-.59,.79-1.28,1.49-1.29,1.57-.03,3.15,0,4.73-.02,.42,0,.91,.17,1.29-.28-.11-.65-.71-.91-1.05-1.36-.31-.41-.74-.68-.96-1.21-.46-1.06-.47-1.37,.35-1.99,.61-.46,1.28-.44,1.91,.16,1.32,1.28,2.63,2.57,3.9,3.9,.53,.56,1.07,.8,1.88,.8,8.27-.05,16.54-.04,24.81-.05,1.14,.51,1.34,.83,1.16,1.83-.15,.83-.72,.98-1.44,.99-1.51,.01-3.01,.05-4.52,.08-1.43-.03-2.85-.05-4.28-.08-.68,0-1.35-.01-2.02-.02-.84,0-1.68,0-2.52,0-.46,0-.88,0-1.23,.39-1.47,1.62-3.22,2.98-4.54,4.74"/><path class="g" d="M14.17,26.82c2.77-.39,5.99,2.36,5.98,5.99-.01,3.06-2.85,6.05-6.11,5.91-1.83-.07-3.17-.83-4.44-2.02-1.2-1.12-1.62-2.67-1.57-4.02,.14-3.54,3.04-6.19,6.14-5.86m0,2.75c-1.98,0-3.58,1.42-3.49,3.12,.1,1.98,1.41,3.25,3.37,3.25,2.03,0,3.33-1.27,3.32-3.24-.02-1.87-1.3-3.13-3.2-3.13"/><path class="g" d="M41.79,11.4c-.53,.36-.96,.42-1.43,.45-.61,.03-1.08-.22-1.24-.74-.15-.48-.17-1.05,.32-1.44,1.09-.86,2.33-1.35,3.72-1.39,.98-.03,1.15,.86,1.34,1.46,.99,3.08-.32,5.72-3.36,6.95-2.15,.86-5.61,0-6.95-2.36-1.31-2.3-1.49-4.45,.09-6.69,1.46-2.07,3.84-3.08,6.27-2.5,.69,.16,.94,.64,.89,1.31-.05,.7-.63,1.33-1.36,1.42-.39,.04-.79-.02-1.18,0-1.75,.05-2.98,1.35-2.99,3.14-.01,1.79,1.2,3.15,2.93,3.22,.76,.03,1.55,.16,2.2-.52,.63-.66,.71-.71,.76-2.28"/><path class="g" d="M15.78,48.5c.14,1.16-.39,2.25-.52,3.41-.11,1.01-.87,1.27-2,1.08-2.66-.45-5.33-.88-8-1.28-.67-.1-1.26-.25-1.68-.78-.4-.51-.24-1-.09-1.6,.17-.67,.23-1.38,.42-2.07,.45-1.61,1.62-2.79,3.14-3.01,.13-.02,.27-.04,.39,0,.73,.24,1.48,.75,2.16,.67,.71-.08,1.42-.6,2.18-.67,2.24-.22,4.02,1.69,4,4.25m-2.75,.04c0,.16-.02-.04,0-.23,.06-.67-.18-1.15-.85-1.31-.62-.15-.92,.34-1.27,.72-.24,.26-.24,.58-.26,.91-.08,1.08,.18,1.41,1.24,1.5,1.01,.09,1.1,0,1.14-1.58m-5.11-.41c-.05-.43,.15-.96-.47-1.12-.45-.12-.77,.13-.95,.49-.26,.52-.34,1.13-.01,1.63,.23,.36,.76,.27,1.07,.16,.56-.19,.26-.77,.36-1.16"/><path class="g" d="M84.85,37.12c-1.42,.06-2.47-.51-3.21-1.75-.43-.72-1.02-1.35-1.52-2.03-.64-.87-.6-1.44,.23-2.2,.62-.57,1.31-1.07,1.99-1.56,1.73-1.24,3.48-2.47,5.23-3.69,.98-.68,1.54-.63,2.3,.3,.61,.75,1.15,1.57,1.62,2.42,1.07,1.92,.33,4.08-1.68,4.8-.7,.25-.95,.58-1.21,1.21-.68,1.63-1.86,2.64-3.76,2.5m-.17-5.85c-.58,.42-1.17,.85-1.72,1.26,.39,.57,.67,1.09,1.05,1.52,.46,.51,1.08,.45,1.6,.13,.51-.31,.58-.83,.29-1.37-.3-.58-.61-1.15-1.22-1.54m4.52-1.05c.02-.28-.48-1.26-.78-1.36-.45-.15-.77,.11-1.02,.41-.52,.65,0,1.08,.41,1.49,.22,.21,.44,.54,.82,.31,.28-.17,.55-.37,.57-.85"/><path class="g" d="M26.41,24.09c.13,1.49-.53,2.46-1.24,3.38-.44,.57-.99,1.05-1.52,1.54-.94,.88-1.79,.9-2.7,.01-1.41-1.37-2.79-2.77-4.17-4.16-.6-.6-1.21-1.2-1.8-1.81-.54-.55-.62-1.24-.12-1.75,.99-1.02,1.89-2.13,3.15-2.9,1.44-.88,2.91-.83,4.23-.12,1.83,.99,3.42,2.31,4,4.52,.14,.52,.13,1.02,.18,1.3m-4.21,2.39c1.47-1.39,1.91-2.59,1.22-3.56-.56-.79-1.25-1.49-2.09-2.02-.95-.6-1.83-.44-2.68,.18-.68,.5-.73,.97-.12,1.61,1.21,1.28,2.45,2.53,3.68,3.79"/><path class="g" d="M72.43,20.92c-2.12,.1-3.54-1.04-4.98-1.95-.7-.44-.49-1.39-.07-2.13,.82-1.46,1.64-2.92,2.46-4.38,.51-.9,.96-1.84,1.54-2.68,.86-1.25,1.3-1.34,2.59-.66,.63,.33,1.22,.73,1.81,1.13,2.26,1.5,2.81,3.22,2.01,5.86-.57,1.89-1.57,3.39-3.35,4.31-.69,.36-1.41,.71-2,.49m-2.21-3.61c.75,.98,1.75,1,2.68,.81,.94-.19,1.63-1.01,1.95-1.8,.86-2.11,1.09-3.12-1.68-4.33-.99,1.78-1.98,3.57-2.95,5.31"/><path class="g" d="M52.42,10.86c.92,.66,1.32,1.59,1.98,2.31,.64,.7,.62,1.4,.11,1.9-.55,.54-1.8,.5-2.24-.22-.63-1.03-1.58-1.71-2.35-2.69-.33,.69-.19,1.27-.19,1.83,0,.73-.18,1.28-1,1.4-.75,.1-1.58-.47-1.74-1.23-.05-.25,0-.52,0-.79,0-2.62-.01-5.24,0-7.86,.01-1.5,.48-1.95,1.98-1.99,.59-.01,1.19,.06,1.77-.01,2.03-.25,3.48,1.12,4.04,2.69,.52,1.45-.33,3.19-1.91,4.26-.11,.07-.2,.17-.45,.39m-2.56-2.73c.41,.28,.88,.16,1.32,.13,.5-.03,.85-.35,.9-.86,.04-.37,.13-.8-.32-1.04-.52-.28-1.07-.54-1.67-.37-.51,.14-.35,.63-.35,1s-.1,.78,.12,1.15"/><path class="g" d="M84.46,20.31c.15,.53-.21,.97-.43,1.42-1.19,2.42-2.27,4.88-3.31,7.37-.27,.64-.51,1.31-1.46,1.33-1.06,.02-1.79-.5-1.44-1.71,.18-.62,.66-1.23,.19-1.81-.62-.76-1.32-1.48-2.13-2.02-.47-.32-1.09,.15-1.65,.33-.57,.19-1.22,.08-1.51-.57-.25-.57-.23-1.15,.3-1.61,.3-.26,.6-.46,.97-.62,1.71-.73,3.39-1.52,5.08-2.29,1.05-.48,2.08-1.01,3.15-1.44,1.23-.49,2.24,.26,2.22,1.61m-3.8,2.15c-.86,.5-1.66,.33-1.97,.89,.27,.41,.52,.78,.74,1.12,.75-.44,.81-1.12,1.23-2.01"/><path class="g" d="M65.9,14.84c0,.79,.03,1.12,0,1.45-.07,.72-.73,1.43-1.33,1.45-.48,.02-1.43-.64-1.37-1.19,.16-1.49-.71-1.74-1.86-2.11-1.21-.39-2.04-.32-2.9,.69-.79,.93-1.36,.83-2.07-.03-.33-.4-.35-.75-.17-1.25,.31-.83,.98-1.37,1.46-2.04,1.47-2.05,3.1-3.98,4.53-6.06,.55-.8,1.22-.75,1.84-.58,.61,.17,1.1,.69,1.1,1.46,0,1.03,.23,2.06,.3,3.07,.14,1.87,.22,3.75,.49,5.14m-4.58-3.16c1.41,.14,1.41,.14,1.41-1.05,0-.24-.04-.48-.07-.75-.76,.44-1.14,1.05-1.34,1.8"/><path class="g" d="M92.5,48.67c.26,.75,.29,1.52,.2,2.27-.1,.87-.63,1.23-1.47,1.18-.92-.05-1.17-.32-1.25-1.35-.03-.33,.03-.66-.03-.98-.13-.74-.99-1.16-1.67-.83-.26,.13-.31,.37-.3,.66,.02,.59,.03,1.18,.02,1.77-.03,1.07-.32,1.45-1.1,1.5-.78,.05-1.52-.52-1.63-1.35-.07-.52-.02-1.05-.04-1.57-.01-.52,.01-1.05-.07-1.56-.22-1.41,.2-2.2,1.53-2.16,2.03,.05,3.99-.55,6.02-.46,.64,.03,1.25-.08,1.9-.28,1.33-.41,2.37,.5,2.46,1.89,.07,1.03-.15,2.06,.31,3.08,.28,.63-.54,1.53-1.29,1.63-.76,.1-1.2-.19-1.37-1.01-.08-.38-.04-.77-.28-1.12-.27-.39,.09-.92-.27-1.3-.04-.05-.1-.13-.14-.13-.51,.03-1.04-.13-1.54,.12"/><path class="g" d="M27.93,14.67c.72-.37,1.42-.68,2.09-1.07,.79-.46,1.21,.05,1.66,.54,.52,.57,.27,1.05-.18,1.54-.58,.65-1.35,.99-2.13,1.39-.15,.33,.16,.61,.28,.81,.5,.84,.76,.87,1.57,.39,.45-.26,.86-.6,1.33-.8,.69-.3,1.44-.03,1.7,.51,.3,.63,.13,1.61-.43,1.95-1.16,.7-2.36,1.32-3.54,2-.58,.33-.97,.06-1.39-.3-.88-.74-1.22-1.83-1.81-2.75-1.09-1.74-2.03-3.59-3-5.41-.51-.96-.36-1.35,.5-2.06,.96-.79,2.11-1.26,3.2-1.83,.51-.27,1.16-.29,1.67,.08,.57,.41,.55,1.54-.06,2.04-.44,.37-.97,.64-1.48,.91-.76,.4-.88,.88-.32,1.54,.12,.14,.2,.31,.33,.52"/><path class="g" d="M86.84,41.61c.03,.65,.44,1.12,.4,1.74-.06,.97-.27,1.39-1.05,1.61-.56,.16-1.53-.35-1.66-1.06-.2-1.14-.58-2.22-.82-3.34-.13-.59,.42-1.2,1.29-1.47,1.34-.41,2.68-.85,4.05-1.11,1.45-.27,2.83-.76,4.25-1.14,.45-.12,.91-.25,1.31,.02,.42,.28,.9,.59,.9,1.2,0,.77-.54,1.19-1.17,1.4-1.03,.33-2.11,.5-3.14,.82-1.45,.45-2.99,.6-4.34,1.34"/><path class="g" d="M14.55,43.43c-1.57-.28-3.53-.56-5.46-1.02-1-.23-2.05-.06-3.02-.55-.8-.41-1.17-.87-.96-1.62,.2-.73,1.05-1.22,1.82-1.03,1.99,.49,4,.8,6.03,1.08,.94,.13,1.89,.3,2.8,.58,.98,.3,1.34,.86,1.17,1.51-.19,.71-.67,1.03-1.59,1.05-.13,0-.26,0-.78,0"/><path class="e" d="M25.96,53.72c0,.19,.09,.44,0,.57-1.18,1.89-2.05,3.97-3.45,5.73-.06-.02-.17-.03-.18-.06-.64-2.34-1.41-4.66-1.43-7.13-.01-1.82,0-3.63,0-5.45,.69,.18,.42,.87,.62,1.29,.92,1.96,2.29,3.52,3.89,4.92,.12,.11,.36,.09,.55,.13"/><path class="e" d="M64.37,73.85c1.43,.03,2.85,.05,4.28,.08-1.48,1.37-3.09,2.53-5.08,3.06,.4-1.01,.2-2.18,.8-3.14"/><path class="e" d="M72.6,30.84c-.3-.07-.71,.04-.79-.44,.34,0,.77-.14,.79,.44"/><path class="d" d="M28.8,55.66c2.64-4.66,5.27-9.32,7.93-13.97,.38-.67,1.1-.85,1.78-1.03,1.53-.4,3.04-.9,4.59-1.14,.96-.15,1-.9,1.41-1.42,.12-.15,.07-.37-.08-.53-.37-.37-.73-.76-1.12-1.11-.5-.45-.77,.35-1.23,.25-.84-.19-1.55,.73-2.5,.28,.53-1.48,1.47-2.73,2.28-4.06,.37-.61,.77-1.16,.76-1.93,0-.57-.07-1.05-.62-1.32-.55-.27-1.78-.11-1.95,.38-.24,.71-.8,1.15-1.14,1.78-1.27,2.36-2.79,4.58-4.03,6.96-1.04,1.98-2.31,3.82-3.31,5.82-.16,.31-.35,.53-.67,.76-1.01-2.28-1.05-4.84-2.11-7.07,1.07-1.09,1.85-2.41,2.9-3.53,3.96-4.2,8.77-6.98,14.23-8.71,.65-.21,1.43-.24,1.43-1.21,.67,1.02,.84,2.22,1.12,3.35,.86,3.55,1.09,7.18,.81,10.81-.2,2.61-.97,5.11-1.9,7.58-.94,2.51-2.23,4.79-4.14,6.65-3.53,3.43-7.72,4.39-12.44,3.06-.67-.19-1.33-.42-2-.62"/><path class="h" d="M60.77,47.76c-.2,.02-.45-.04-.58,.06-.46,.36-.89,.55-1.41,.12-.53-.44-.85-.92-.79-1.68,.07-.83,.65-1.57,.41-2.45,.21-.03,.35-.15,.4-.35,.39-1.52,.63-3.1,1.21-4.54,.93-2.31-.19-3.85-1.61-5.37,0-.63-.29-1.12-.69-1.57-1.11-1.95-2.22-3.9-3.33-5.85-.35-.61-.74-1.21-1.01-1.86-.34-.83-.05-1.81,.52-2.08,.74-.35,1.68-.09,2.15,.7,1.47,2.48,2.9,4.99,4.34,7.49,2.16,3.68,4.32,7.35,6.47,11.04,.29,.49,.55,1.01,.77,1.54,.69,1.67,1.96,2.51,3.71,2.85,1.29,.25,2.61,.47,3.82,1.07,.57,.28,.98,.51,1.03,1.23,.05,.72-.4,1.09-.85,1.44-.44,.34-1.01,.33-1.46,.03-.62-.4-1.4-.09-2.01-.57-.22-.18-.5,.23-.39,.46,.33,.69,.68,1.38,1.12,2,.74,1.06,1.11,2.3,1.81,3.37,.49,.75-.39,1-.4,1.53-.48-.03-.77,.77-1.39,.29-.44-.34-.9-.53-1.22-1.11-2.57-4.62-5.22-9.19-7.86-13.78-.13-.22-.31-.41-.5-.58-.26-.25-.59-.09-.61,.15-.17,1.66-.89,3.17-1.19,4.78-.11,.57-.58,1.03-.44,1.65"/><path class="d" d="M54.06,78.96c1.32-1.76,3.06-3.13,4.54-4.74,.35-.39,.76-.4,1.23-.39,.84,.02,1.68,0,2.52,0,.1,.96-.72,1.34-1.26,1.82-2.01,1.77-4.23,3.18-7.02,3.31"/><path class="d" d="M58.4,33.55c1.42,1.52,2.54,3.06,1.61,5.37-.58,1.44-.82,3.02-1.21,4.54-.05,.2-.19,.32-.4,.35-.48-1.78-.89-3.54-.82-5.42,.05-1.29,.25-2.52,.69-3.71,.14-.39,.09-.76,.14-1.13"/><path class="d" d="M26.83,42.63c.98,2.07,1.09,4.39,1.92,6.51,.11,.28-.09,.47-.2,.7-.45,.97-.94,1.9-1.71,2.66-.8-1.26-.95-2.76-1.1-4.12-.21-1.94,.04-3.96,1.1-5.74"/><path class="g" d="M14.17,29.57c1.9,0,3.18,1.26,3.2,3.13,.02,1.97-1.29,3.24-3.32,3.24-1.96,0-3.27-1.27-3.37-3.25-.08-1.71,1.51-3.13,3.49-3.12"/><path class="g" d="M13.03,48.54c-.05,1.58-.13,1.67-1.14,1.58-1.06-.09-1.32-.41-1.24-1.5,.02-.33,.03-.64,.26-.91,.34-.38,.65-.87,1.27-.72,.67,.16,.92,.64,.85,1.31-.02,.19,0,.39,0,.23"/><path class="g" d="M7.92,48.14c-.1,.39,.21,.98-.36,1.16-.32,.11-.84,.19-1.07-.16-.33-.5-.25-1.11,.01-1.63,.18-.36,.5-.61,.95-.49,.62,.16,.43,.69,.47,1.12"/><path class="g" d="M84.67,31.27c.61,.39,.92,.96,1.22,1.54,.28,.54,.22,1.05-.29,1.37-.52,.32-1.15,.39-1.6-.13-.38-.43-.66-.95-1.05-1.52,.56-.41,1.14-.84,1.72-1.26"/><path class="g" d="M89.2,30.21c-.02,.48-.29,.68-.57,.85-.38,.23-.61-.1-.82-.31-.41-.41-.92-.84-.41-1.49,.24-.31,.57-.56,1.02-.41,.3,.1,.8,1.08,.78,1.36"/><path class="g" d="M22.21,26.48c-1.23-1.26-2.47-2.51-3.68-3.79-.61-.64-.56-1.11,.12-1.61,.85-.62,1.72-.78,2.68-.18,.84,.53,1.53,1.23,2.09,2.02,.69,.97,.26,2.17-1.22,3.56"/><path class="g" d="M70.22,17.31c.97-1.75,1.96-3.53,2.95-5.31,2.78,1.21,2.54,2.22,1.68,4.33-.32,.79-1.01,1.61-1.95,1.8-.93,.19-1.93,.17-2.68-.81"/><path class="g" d="M49.86,8.13c-.22-.37-.12-.77-.12-1.15s-.16-.85,.35-1c.6-.17,1.15,.09,1.67,.37,.45,.24,.35,.67,.32,1.04-.05,.51-.4,.83-.9,.86-.44,.03-.91,.15-1.32-.13"/><path class="g" d="M80.65,22.45c-.41,.89-.48,1.57-1.23,2.01-.22-.34-.47-.71-.74-1.12,.31-.56,1.11-.4,1.97-.89"/><path class="g" d="M61.32,11.69c.2-.75,.59-1.36,1.34-1.8,.03,.28,.07,.52,.07,.75,0,1.19,0,1.19-1.41,1.05"/><path class="h" d="M50.34,11.65c7.38-.21,13.85,1.47,19.97,4.69,4.95,2.61,9.17,6.05,12.78,10.36,3.84,4.59,6.48,9.76,8.15,15.44,.45,1.53,1,3.06,1,4.7,0,.26,.03,.53,0,.79-.06,.71-.69,1.51-1.28,1.51-.67,0-1.25-.25-1.54-.95-.12-.3-.3-.55-.34-.9-.86-6.33-3.41-11.94-7.21-17.05-4.09-5.49-9.29-9.53-15.5-12.33-3-1.35-6.13-2.18-9.38-2.76-3.66-.66-7.36-.65-10.96-.24-6.74,.76-12.93,3.22-18.38,7.4-1.71,1.31-3.43,2.6-4.9,4.19-4.87,5.27-8.25,11.33-9.9,18.35-.28,1.19-.19,2.44-.71,3.59-.45,1.01-.89,1.34-1.91,1.11-.65-.14-1.31-1.08-1.17-1.78,1.06-5.51,2.65-10.81,5.6-15.68,2.29-3.78,5-7.18,8.28-10.08,4.6-4.06,9.86-7.03,15.77-8.77,3.93-1.16,7.94-1.86,11.62-1.61"/></g></g></g></svg>