<?xml version="1.0" encoding="UTF-8"?><svg xmlns="http://www.w3.org/2000/svg" viewBox="0 0 103.77 103.81"><defs><style>.d{fill:#f19f37;}.e{fill:#ffd54e;}.f{fill:#7e4c18;}.g{fill:#fbbe3e;}.h{fill:#94641a;}</style></defs><g id="a"/><g id="b"><g id="c"><g><path class="g" d="M82.63,93.51c-6.75,5.35-14.52,8.4-22.95,9.7-22.21,3.43-44.17-8.02-54.23-28.13C-6.55,51.07,1.85,21.74,24.74,7.73c.24-.15,.52-.23,.78-.35-.75,2.23-2.97,3.2-4.25,4.97-1.52,2.09-3.98,3.53-4.39,6.38-.27,.27-.54,.53-.81,.8-.16,.16-.32,.31-.48,.47-.86,1.05-1.71,2.11-2.57,3.16C3.82,34.51,.35,47.4,3.07,61.78c2.86,15.13,11.33,26.28,24.9,33.42,9.03,4.75,18.74,6.13,28.82,4.59,2.28-.35,4.63-.74,6.71-1.91-3.48,.44-6.89,1.16-10.42,1.15-3.52,0-7.01-.16-10.47-.89-13.09-2.75-23.35-9.72-30.52-20.95-6.11-9.57-8.41-20.11-6.91-31.45,1.17-8.83,4.58-16.62,10.07-23.62,1.39-1.77,3.54-2.97,4.2-5.3,.12-.11,.23-.22,.35-.33,1,.06,1.78-.16,1.81-1.38,.13-.11,.26-.23,.39-.34,.38,0,.73-.06,.92-.45l-.02,.02c.15-.15,.3-.3,.45-.45h-.02c.37,0,.7-.08,.88-.44,.79-.6,1.52-1.33,2.39-1.79,8.16-4.32,16.66-7.06,26.1-6.91,11.27,.18,21.22,3.8,29.6,11.02,13.22,11.38,18.71,26.05,16.17,43.35-2.24,15.26-10.53,26.52-23.88,34.16-2.65,1.51-5.4,2.82-8.08,4.32,4.77-.36,9.27-1.73,13.67-3.48,.79-.32,1.49-.91,2.43-.61m-4.05-7.91c.68,.07,1.26-.1,1.76-.61,1.76-1.8,3.75-3.42,5.28-5.39,7.65-9.81,11.21-20.84,9.46-33.34-2.09-15.02-10.04-26-23.26-33.13-8.26-4.46-17.19-5.8-26.47-4.35-2.65,.41-5.41,.6-7.75,2.17-.43,.25-.83,.6-1.29,.74-7.59,2.22-13.49,6.85-18.3,12.96-8.47,10.76-11.6,22.91-8.67,36.31,3.07,14.04,11.27,24.26,24.3,30.44,7.84,3.72,16.1,4.87,24.69,3.64,7.04-1,13.2-4.06,18.92-8.14,.64,0,.95-.31,.93-.95,.12-.11,.25-.23,.37-.35m-13.16,12.33c-.11,0-.21-.02-.32-.03,.05,.04,.1,.11,.15,.11,.05,0,.11-.05,.17-.09"/><path class="e" d="M82.63,93.51c-.94-.3-1.65,.3-2.44,.61-4.4,1.75-8.89,3.12-13.67,3.48,2.68-1.5,5.43-2.81,8.08-4.32,13.35-7.64,21.65-18.9,23.88-34.16,2.54-17.3-2.95-31.96-16.17-43.35-8.39-7.22-18.33-10.84-29.6-11.03-9.44-.15-17.94,2.59-26.1,6.91-.87,.46-1.6,1.19-2.39,1.79-.36,.02-.69,.11-.88,.45h.02c-.15,.14-.3,.29-.45,.43l.02-.02c-.31,.15-.61,.3-.92,.45l-.39,.34c-.82,.18-1.34,.74-1.81,1.38-.12,.11-.23,.22-.35,.33-1.13,.27-1.64,1.38-2.58,1.91,.41-2.85,2.88-4.29,4.39-6.38,1.28-1.77,3.51-2.73,4.25-4.97C32.11,3.09,39.44,.91,47.18,.21c21.63-1.95,41.94,9.65,51.47,29.24,10.62,21.81,4.25,48.78-14.98,63.43-.22,.17-.49,.29-.73,.44-.24-.23-.31-.07-.35,.16l.04,.03Z"/><path class="g" d="M82.6,93.48c.04-.23,.11-.39,.35-.16-.09,.11-.21,.16-.35,.16"/><path class="e" d="M77.28,86.9c-5.72,4.08-11.88,7.13-18.92,8.14-8.59,1.22-16.85,.07-24.69-3.64-13.04-6.18-21.23-16.39-24.3-30.44-2.93-13.4,.2-25.55,8.66-36.31,4.81-6.11,10.71-10.73,18.3-12.96,.46-.14,.86-.49,1.29-.74,.71-.09,1.43-.14,2.13-.28,5.02-1.05,10.03-1.42,15.16-.71,10.98,1.53,20.13,6.32,27.42,14.7,11.42,13.12,13.9,32.19,6.18,47.74-2.49,5.02-5.98,9.28-9.92,13.2-.12,.11-.25,.23-.37,.35-.31,.32-.62,.63-.93,.95m-22.64-46.27c0-2.23,.03-4.46-.01-6.69-.02-1.13,.48-1.47,1.56-1.51,4.51-.14,8.29,3.11,8.71,7.57,.24,2.54,1.67,4.11,3.61,3.94,2.09-.17,3.25-1.77,3.14-4.36-.03-.57-.1-1.15-.21-1.71-1.5-7.16-7.16-11.99-14.49-12.1-2-.03-2.46-.72-2.34-2.52,.11-1.64,0-3.31-.15-4.95-.21-2.16-1.6-3.49-3.39-3.41-1.78,.08-3.22,1.59-3.32,3.61-.07,1.51-.17,3.04,.01,4.53,.27,2.23-.58,2.71-2.74,2.75-11.49,.22-18.3,12.54-12.38,22.38,2.89,4.81,7.33,7.15,12.97,7.13,1.07,0,2.17-.24,2.14,1.52-.08,4.39-.04,8.78-.02,13.17,0,1-.38,1.45-1.4,1.41-3.18-.12-5.94-1.06-7.72-3.92-.77-1.25-1.06-2.63-1.17-4.1-.15-2.03-1.73-3.54-3.43-3.49-1.99,.05-3.25,1.48-3.25,3.77,0,.93,.04,1.88,.25,2.78,1.56,6.86,7.33,11.56,14.44,11.63,1.78,.02,2.45,.49,2.3,2.31-.14,1.71-.1,3.46,0,5.18,.12,1.86,1.63,3.32,3.32,3.39,1.73,.07,3.16-1.22,3.36-3.21,.16-1.57,.3-3.17,.17-4.73-.18-2.16,.41-2.92,2.79-2.97,10-.18,16.81-9.9,13.74-19.33-1.99-6.11-7.49-10.18-14.04-10.12-2.05,.02-2.64-.63-2.48-2.57,.15-1.79,.03-3.59,.04-5.39"/><path class="d" d="M16.88,18.73c.94-.53,1.45-1.64,2.58-1.9-.67,2.34-2.81,3.53-4.2,5.3-5.49,7-8.9,14.79-10.07,23.61-1.51,11.34,.79,21.88,6.91,31.45,7.17,11.23,17.43,18.21,30.52,20.95,3.46,.73,6.94,.88,10.47,.89,3.52,0,6.94-.71,10.42-1.15-2.09,1.17-4.43,1.56-6.71,1.91-10.08,1.54-19.79,.15-28.82-4.59-13.58-7.14-22.04-18.28-24.9-33.42-2.71-14.38,.75-27.26,9.95-38.62,.85-1.06,1.71-2.11,2.57-3.16,.16-.16,.32-.31,.48-.47,.27-.27,.54-.53,.81-.8"/><path class="d" d="M78.59,85.6c3.94-3.92,7.43-8.18,9.92-13.2,7.72-15.55,5.24-34.62-6.18-47.74-7.29-8.38-16.44-13.17-27.42-14.7-5.13-.71-10.14-.34-15.16,.71-.7,.15-1.42,.19-2.13,.28,2.34-1.57,5.11-1.76,7.75-2.17,9.28-1.45,18.21-.1,26.47,4.36,13.22,7.13,21.17,18.11,23.26,33.13,1.74,12.51-1.81,23.53-9.46,33.34-1.54,1.97-3.52,3.59-5.28,5.39-.5,.51-1.08,.67-1.76,.61"/><path class="d" d="M19.81,16.49c.47-.64,1-1.2,1.81-1.38-.03,1.22-.81,1.44-1.81,1.38"/><path class="d" d="M77.28,86.9c.31-.32,.62-.63,.93-.95,.02,.64-.3,.95-.93,.95"/><path class="d" d="M23.35,13.91c.2-.34,.52-.43,.88-.45-.19,.36-.52,.44-.88,.45"/><path class="d" d="M22.02,14.77c.3-.15,.61-.3,.92-.45-.19,.39-.54,.45-.92,.45"/><path class="e" d="M65.43,97.93c-.06,.03-.12,.09-.17,.09-.05,0-.1-.07-.15-.11,.11,.01,.21,.02,.32,.03"/><path class="d" d="M22.91,14.34c.15-.15,.3-.3,.45-.45-.15,.15-.3,.3-.45,.45"/><path class="e" d="M16.07,19.52c-.16,.16-.32,.31-.48,.47,.16-.15,.32-.31,.48-.47"/><path class="h" d="M54.64,40.63c0,1.8,.11,3.61-.03,5.39-.16,1.93,.43,2.59,2.48,2.57,6.54-.07,12.04,4.01,14.04,10.12,3.08,9.43-3.74,19.15-13.74,19.33-2.38,.04-2.96,.81-2.78,2.97,.13,1.56,0,3.16-.17,4.73-.2,1.99-1.64,3.28-3.36,3.21-1.69-.07-3.2-1.52-3.32-3.39-.11-1.72-.14-3.46,0-5.18,.15-1.81-.52-2.29-2.3-2.31-7.11-.07-12.88-4.78-14.44-11.63-.21-.9-.25-1.85-.25-2.78,0-2.29,1.26-3.72,3.25-3.77,1.7-.05,3.29,1.47,3.43,3.49,.11,1.47,.4,2.85,1.17,4.1,1.78,2.86,4.54,3.8,7.72,3.92,1.02,.04,1.4-.4,1.4-1.41-.02-4.39-.06-8.78,.02-13.17,.03-1.76-1.07-1.53-2.14-1.52-5.64,.02-10.08-2.32-12.97-7.13-5.92-9.84,.89-22.16,12.38-22.38,2.16-.04,3.01-.53,2.74-2.75-.18-1.49-.09-3.02-.01-4.53,.1-2.02,1.54-3.53,3.32-3.61,1.79-.08,3.19,1.25,3.39,3.41,.16,1.64,.26,3.31,.15,4.95-.12,1.8,.34,2.49,2.34,2.52,7.33,.1,12.99,4.94,14.49,12.1,.12,.56,.19,1.14,.21,1.71,.11,2.59-1.05,4.18-3.14,4.36-1.94,.16-3.37-1.4-3.61-3.94-.42-4.46-4.2-7.71-8.71-7.57-1.08,.03-1.58,.38-1.56,1.51,.04,2.23,.01,4.46,.01,6.69m-6.71,0c0-2.23-.03-4.46,.01-6.68,.02-1.11-.42-1.46-1.52-1.52-5.12-.27-9.35,3.49-9.26,8.33,.08,4.77,4.34,8.26,9.43,7.81,1.05-.09,1.35-.52,1.34-1.47-.03-2.16,0-4.31,0-6.47m6.51,22.64c0,2.08,.06,4.16-.02,6.23-.05,1.32,.28,1.91,1.77,1.92,4.99,.06,9.05-3.55,8.97-8.16-.08-4.77-4.21-8.29-9.26-7.99-1.13,.07-1.5,.46-1.47,1.54,.05,2.15,.02,4.3,.01,6.45m13.11,7.83c.3,.02,.48,.09,.55,.03,.21-.18,.43-.38,.57-.62,2.33-4.11,2.86-8.35,.8-12.73-2.51-5.32-6.66-8.06-12.61-8.02-3.71,.02-3.26,.41-3.28-3.39-.02-3.95,0-7.91-.01-11.86,0-.86,.13-1.83-1.26-2.35,0,5.74,.01,11.26,0,16.78,0,1.13,.65,1.3,1.54,1.26,1.66-.08,3.28,.13,4.91,.42,5.09,.91,11.79,7.05,10.51,14.83-.32,1.97-.97,3.79-1.71,5.65M50.16,16.49c2.53,.91,2.12,2.67,2.14,4.29,.01,1.65,.1,3.31-.03,4.95-.13,1.67,.56,2.21,2.12,2.01,.56-.07,1.15,0,1.72-.01,5.33-.02,9.07,2.55,11.64,7.1,1.31,2.3,1.59,4.84,1.75,7.58,.37-.3,.6-.4,.67-.56,.14-.32,.23-.67,.26-1.02,.27-3.47-.88-6.46-3.11-9.08-3.07-3.59-7.03-5.07-11.66-4.83-1.56,.08-2.22-.36-2.11-2.03,.13-2,.1-4.02,0-6.03-.09-1.94-.98-2.68-3.38-2.37m-2.72,56.33c-6.48-.63-10.81-3.16-11.25-10.03-.1-1.5-1.73-2-3.13-1.19,1.14,.46,1.86,1.07,2.01,2.47,.73,6.6,5.27,9.87,12.38,8.75m-10.81-35.54c-1.9,1.93-2.04,5.17-.54,8.07,2.02,3.87,5.7,5.43,11.01,4.65-8.88-1.54-11.93-5.11-10.47-12.72m19.9,35.57q-3.36-.36-3.36-3.89c0-4.02,.01-8.04-.01-12.05,0-.57,.23-1.26-.5-1.82-.53,.72-.35,1.44-.35,2.1-.02,4.02,0,8.04,0,12.05s0,4.18,4.24,3.61m-4.11,14.03c.98-2.88,.69-5.81,.72-8.74-.24,0-.48,0-.72,0v8.74Zm-5.19-59.62c-1.79-.39-3.59-.68-5.69,.44,2.19-.04,3.96,.28,5.69-.44m-10.17,9.19l-.05-.19c-.05,.02-.15,.03-.15,.05,0,.06,.03,.12,.05,.19,.05-.02,.11-.03,.16-.05m21.45,36.01c-.11,0-.22-.02-.32-.03,.05,.04,.1,.11,.15,.11,.06,0,.12-.05,.17-.08"/><path class="e" d="M47.93,40.63c0,2.16-.02,4.31,0,6.47,.01,.95-.29,1.38-1.34,1.47-5.09,.44-9.34-3.04-9.43-7.81-.08-4.84,4.14-8.6,9.26-8.33,1.1,.06,1.54,.41,1.52,1.52-.05,2.23-.01,4.46-.01,6.68"/><path class="e" d="M54.44,63.27c0-2.15,.04-4.3-.01-6.45-.03-1.09,.35-1.48,1.47-1.54,5.05-.29,9.19,3.23,9.26,7.99,.07,4.6-3.98,8.22-8.97,8.16-1.49-.02-1.82-.6-1.77-1.93,.08-2.07,.02-4.16,.02-6.23"/><path class="f" d="M67.55,71.1c.74-1.86,1.38-3.68,1.71-5.65,1.28-7.78-5.43-13.91-10.51-14.83-1.63-.29-3.25-.51-4.91-.42-.89,.04-1.55-.13-1.54-1.26,.02-5.52,0-11.04,0-16.78,1.39,.52,1.26,1.49,1.26,2.35,.01,3.95,0,7.91,.01,11.86,.02,3.79-.43,3.41,3.28,3.39,5.95-.04,10.1,2.7,12.61,8.02,2.06,4.38,1.53,8.62-.8,12.73-.14,.24-.35,.45-.57,.62-.07,.06-.25,0-.55-.03"/><path class="f" d="M50.16,16.49c2.4-.31,3.3,.42,3.38,2.37,.09,2.01,.12,4.03,0,6.03-.11,1.67,.55,2.11,2.11,2.03,4.63-.24,8.59,1.24,11.66,4.83,2.24,2.62,3.38,5.61,3.11,9.08-.03,.35-.12,.7-.26,1.02-.07,.17-.3,.26-.67,.56-.16-2.74-.44-5.28-1.75-7.58-2.57-4.55-6.31-7.11-11.64-7.1-.58,0-1.16-.06-1.72,.01-1.56,.19-2.25-.34-2.11-2.01,.13-1.64,.04-3.3,.03-4.95-.01-1.62,.4-3.38-2.14-4.29"/><path class="f" d="M47.45,72.82c-7.11,1.12-11.64-2.15-12.38-8.75-.15-1.4-.88-2-2.01-2.47,1.41-.81,3.04-.32,3.13,1.19,.45,6.87,4.77,9.4,11.25,10.03"/><path class="f" d="M36.63,37.28c-1.46,7.61,1.59,11.18,10.47,12.72-5.31,.78-8.99-.78-11.01-4.65-1.51-2.9-1.36-6.14,.54-8.07"/><path class="f" d="M56.54,72.85q-4.24,.58-4.24-3.61c0-4.02,0-8.04,0-12.05,0-.66-.17-1.39,.35-2.1,.73,.56,.5,1.25,.5,1.82,.02,4.02,.01,8.03,.01,12.05q0,3.52,3.36,3.89"/><path class="f" d="M52.43,86.88v-8.74c.24,0,.48,0,.72,0-.04,2.93,.25,5.86-.72,8.74"/><path class="f" d="M47.24,27.26c-1.73,.72-3.5,.4-5.69,.44,2.1-1.12,3.9-.83,5.69-.44"/><path class="f" d="M37.07,36.44c-.05,.02-.11,.03-.16,.05-.02-.06-.05-.13-.05-.19,0-.02,.1-.03,.16-.05,.02,.06,.04,.13,.05,.19"/><path class="f" d="M58.52,72.46c-.06,.03-.12,.09-.17,.08-.05,0-.1-.07-.15-.11,.11,.01,.22,.02,.32,.03"/></g></g></g></svg>