<?xml version="1.0" encoding="UTF-8"?><svg xmlns="http://www.w3.org/2000/svg" viewBox="0 0 537.2 85.11"><defs><style>.d{fill:#04a0d6;}</style></defs><g id="a"/><g id="b"><g id="c"><g><path class="d" d="M43.34,83.26v-24.46h8.96c.7-4.02,1.33-7.66,2.07-11.91h-10.68c-2.13-10.78-.85-12.45,10.81-14.56,.09-1.03,.24-2.12,.26-3.22,.04-1.93,.01-3.86,.01-6.11-7.38-.96-14.54-2.43-20.36,3.26-5.65,5.52-3.7,13.05-4.44,20.33h-9.71v12.01h9.71v24.38c-8.01,0-15.9,.32-23.74-.13-4.26-.24-6.1-3.88-6.13-7.79C-.02,56.24-.06,37.42,.13,18.6c.05-5.32,3.11-8.23,8.57-8.28,18.68-.17,37.37-.17,56.05,0,5.32,.05,8.35,3.09,8.4,8.47,.18,18.68,.16,37.37,.02,56.05-.04,4.96-2.54,8.07-7.11,8.32-7.46,.42-14.97,.11-22.73,.11"/><path class="d" d="M358.3,8.08c12.41,.56,24.63,.91,36.83,1.72,10.9,.72,15.86,5.02,16.32,15.81,.63,14.86,.4,29.79-.15,44.66-.29,7.82-4.5,11.95-12.27,13.29-5.71,.99-11.57,1.57-17.36,1.54-20.18-.09-40.36-.26-60.52-.95-11.32-.38-16.04-4.73-16.6-16.05-.71-14.27-.59-28.63,.04-42.92,.45-10.11,5.44-14.67,15.52-15.35,12.77-.86,25.58-1.2,38.21-1.75m-11.38,22.67V63.6c9.77-5.68,18.8-10.93,28.69-16.68-10.23-5.76-19.24-10.83-28.69-16.16"/><path class="d" d="M143.36,10.19h99.24V84.15h-99.24V10.19Zm33.72,37.61c-7.69,9.55-15,18.62-22.66,28.13h77.68c-8.04-9.77-15.5-18.83-23.12-28.1-4.55,3.7-8.77,6.92-12.74,10.43-2.29,2.02-3.98,2.22-6.36,.08-3.94-3.56-8.19-6.78-12.81-10.54m-21.97-29.72c-.15,.33-.3,.66-.45,.99,12.71,10.35,25.43,20.69,38.39,31.23,12.99-10.59,25.73-20.98,39.53-32.22h-77.47Zm-3.68,48.37c6.91-8.51,12.93-15.92,19.3-23.76-6.38-5.15-12.46-10.06-19.3-15.58v39.35Zm83.02-.47V27.21c-6.72,5.46-12.75,10.35-19.07,15.48,6.3,7.7,12.28,14.99,19.07,23.28"/><path class="d" d="M452.51,85.11c1.9-6.93,3.75-13.57,5.49-20.24,.23-.86,.15-2.02-.26-2.8-13.29-25.56,1.57-56.07,29.93-61.36,22.98-4.29,45.57,11.72,49.03,34.75,3.43,22.85-10.98,43.65-33.56,48.23-9.33,1.9-18.31,.52-26.9-3.59-.85-.41-2.06-.5-2.98-.27-6.41,1.6-12.78,3.32-19.17,4.99-.44,.11-.89,.17-1.58,.3m10.16-9.96c4.01-1.06,7.61-1.97,11.17-2.98,1.39-.4,2.51-.27,3.81,.48,6.93,4.01,14.43,5.5,22.34,4.33,19.71-2.93,32.7-20.87,29.6-40.69-3.06-19.57-22.99-32.86-42.35-28.23-23.59,5.64-34.56,31.98-21.93,52.71,.64,1.05,.79,1.94,.44,3.13-1.07,3.6-1.99,7.23-3.07,11.25"/><path class="d" d="M505.97,62.57c-5.08-.51-9.72-2.36-14.02-5.01-6.89-4.24-12.08-10.18-16.12-17.12-2.01-3.47-3.11-7.27-1.64-11.19,.74-1.97,2-3.89,3.46-5.43,2.15-2.28,5.99-1.35,7.17,1.47,.93,2.23,1.81,4.48,2.8,6.69,.51,1.15,.52,2.14-.3,3.12-.38,.45-.7,.95-1.06,1.42q-2.12,2.77-.07,5.7c3.25,4.7,7.54,8.07,12.79,10.3,1.18,.5,2.01,.32,2.77-.68,.89-1.17,1.88-2.28,2.76-3.46,.69-.93,1.46-1.31,2.58-.77,2.81,1.36,5.66,2.66,8.44,4.09,.45,.23,.86,1,.88,1.53,.09,2.94-.84,5.44-3.43,7.14-2.12,1.39-4.39,2.3-7,2.2"/></g></g></g></svg>