<?xml version="1.0" encoding="UTF-8"?><svg xmlns="http://www.w3.org/2000/svg" xmlns:xlink="http://www.w3.org/1999/xlink" viewBox="0 0 531.69 469.08"><defs><style>.df{clip-path:url(#bh);}.dg{clip-path:url(#al);}.dh{clip-path:url(#av);}.di{clip-path:url(#bm);}.dj{fill:#f0f0f0;}.dk{clip-path:url(#ac);}.dl{fill:#74160f;}.dm{fill:#fff;}.dn{clip-path:url(#ci);}.do{clip-path:url(#l);}.dp{clip-path:url(#cc);}.dq{clip-path:url(#ak);}.dr{clip-path:url(#h);}.ds{opacity:.5;}.dt{opacity:.3;}.du{clip-path:url(#au);}.dv{clip-path:url(#br);}.dw{clip-path:url(#ca);}.dx{clip-path:url(#ce);}.dy{clip-path:url(#cd);}.e`{clip-path:url(#bf);}.ea{clip-path:url(#ar);}.eb{clip-path:url(#cq);}.ec{clip-path:url(#ah);}.ed{isolation:isolate;}.ee{clip-path:url(#cx);}.ef{clip-path:url(#as);}.eg{clip-path:url(#cw);}.eh{clip-path:url(#bv);}.ei{clip-path:url(#ag);}.ej{clip-path:url(#at);}.ek{clip-path:url(#bg);}.el{clip-path:url(#x);}.em{clip-path:url(#be);}.en{clip-path:url(#bn);}.eo{clip-path:url(#dd);}.ep{clip-path:url(#ax);}.eq{clip-path:url(#cu);}.er{clip-path:url(#cs);}.es{clip-path:url(#aa);}.et{clip-path:url(#aj);}.eu{clip-path:url(#n);}.ev{clip-path:url(#bs);}.ew{clip-path:url(#bj);}.ex{clip-path:url(#bp);}.ey{clip-path:url(#a`);}.f`{clip-path:url(#ch);}.fa{clip-path:url(#ab);}.fb{clip-path:url(#ct);}.fc{clip-path:url(#u);}.fd{fill:#e6e6e6;}.fe{clip-path:url(#d`);}.ff{clip-path:url(#cg);}.fg{clip-path:url(#o);}.fh{clip-path:url(#ba);}.fi{clip-path:url(#bi);}.fj{clip-path:url(#de);}.fk{clip-path:url(#c`);}.fl{clip-path:url(#cv);}.fm{clip-path:url(#aw);}.fn{fill:#263239;}.fo{clip-path:url(#m);}.fp{clip-path:url(#cy);}.fq{clip-path:url(#bo);}.fr{clip-path:url(#da);}.fs{clip-path:url(#bk);}.ft{clip-path:url(#ae);}.fu{clip-path:url(#cf);}.fv{clip-path:url(#t);}.fw{clip-path:url(#bd);}.fx{clip-path:url(#bx);}.fy{clip-path:url(#bu);}.g`{fill:#fbfbfb;}.ga{clip-path:url(#dc);}.gb{clip-path:url(#bw);}.gc{clip-path:url(#db);}.gd{clip-path:url(#e);}.ge{clip-path:url(#w);}.gf{clip-path:url(#ai);}.gg{clip-path:url(#af);}.gh{clip-path:url(#bt);}.gi{clip-path:url(#d);}.gj{clip-path:url(#v);}.gk{opacity:.2;}.gl{clip-path:url(#bq);}.gm{fill:#ebebeb;}.gn{fill:none;}.go{clip-path:url(#p);}.gp{mix-blend-mode:multiply;opacity:.7;}.gq{clip-path:url(#b`);}.gr{fill:#a48a7b;}.gs{clip-path:url(#ao);}.gt{clip-path:url(#bl);}.gu{clip-path:url(#cl);}.gv{fill:#f5f4f5;}.gw{clip-path:url(#cj);}.gx{clip-path:url(#an);}.gy{clip-path:url(#f);}.h`{clip-path:url(#co);}.ha{clip-path:url(#j);}.hb{clip-path:url(#q);}.hc{clip-path:url(#y);}.hd{fill:#4b6fb5;}.he{clip-path:url(#cn);}.hf{clip-path:url(#cb);}.hg{opacity:.1;}.hh{clip-path:url(#cp);}.hi{clip-path:url(#bb);}.hj{clip-path:url(#s);}.hk{clip-path:url(#bc);}.hl{clip-path:url(#by);}.hm{clip-path:url(#aq);}.hn{clip-path:url(#r);}.ho{clip-path:url(#i);}.hp{clip-path:url(#k);}.hq{clip-path:url(#cr);}.hr{clip-path:url(#ap);}.hs{clip-path:url(#ck);}.ht{clip-path:url(#g);}.hu{clip-path:url(#cm);}.hv{clip-path:url(#am);}.hw{clip-path:url(#ad);}.hx{fill:#e0e0df;}.hy{clip-path:url(#ay);}</style><clipPath id="d"><rect class="gn" x="65.27" y="5.6" width="361.62" height="40.73"/></clipPath><clipPath id="e"><rect class="gn" x="16.58" y="322.01" width="266.9" height="5.51"/></clipPath><clipPath id="f"><rect class="gn" x="49.81" y="424.57" width="132.04" height="2.82"/></clipPath><clipPath id="g"><rect class="gn" x="59.47" y="424.57" width="5.21" height="24.85"/></clipPath><clipPath id="h"><rect class="gn" x="71.42" y="424.57" width="5.2" height="24.85"/></clipPath><clipPath id="i"><rect class="gn" x="83.37" y="424.57" width="5.2" height="24.85"/></clipPath><clipPath id="j"><rect class="gn" x="95.31" y="424.57" width="5.2" height="24.85"/></clipPath><clipPath id="k"><rect class="gn" x="107.26" y="424.57" width="5.2" height="24.85"/></clipPath><clipPath id="l"><rect class="gn" x="119.2" y="424.57" width="5.21" height="24.85"/></clipPath><clipPath id="m"><rect class="gn" x="131.15" y="424.57" width="5.2" height="24.85"/></clipPath><clipPath id="n"><rect class="gn" x="143.1" y="424.57" width="5.2" height="24.85"/></clipPath><clipPath id="o"><rect class="gn" x="155.04" y="424.57" width="5.2" height="24.85"/></clipPath><clipPath id="p"><rect class="gn" x="166.99" y="424.57" width="5.2" height="24.85"/></clipPath><clipPath id="q"><rect class="gn" x="44.43" y="399.72" width="132.05" height="2.82"/></clipPath><clipPath id="r"><rect class="gn" x="54.1" y="399.72" width="5.2" height="24.85"/></clipPath><clipPath id="s"><rect class="gn" x="66.04" y="399.72" width="5.21" height="24.85"/></clipPath><clipPath id="t"><rect class="gn" x="77.99" y="399.72" width="5.2" height="24.85"/></clipPath><clipPath id="u"><rect class="gn" x="89.94" y="399.72" width="5.2" height="24.85"/></clipPath><clipPath id="v"><rect class="gn" x="101.88" y="399.72" width="5.2" height="24.85"/></clipPath><clipPath id="w"><rect class="gn" x="113.83" y="399.72" width="5.2" height="24.85"/></clipPath><clipPath id="x"><rect class="gn" x="125.77" y="399.72" width="5.21" height="24.85"/></clipPath><clipPath id="y"><rect class="gn" x="137.72" y="399.72" width="5.2" height="24.85"/></clipPath><clipPath id="a`"><rect class="gn" x="149.67" y="399.72" width="5.2" height="24.85"/></clipPath><clipPath id="aa"><rect class="gn" x="161.61" y="399.72" width="5.2" height="24.85"/></clipPath><clipPath id="ab"><rect class="gn" x="40.64" y="374.87" width="132.04" height="2.82"/></clipPath><clipPath id="ac"><rect class="gn" x="50.3" y="374.87" width="5.2" height="24.85"/></clipPath><clipPath id="ad"><rect class="gn" x="62.25" y="374.87" width="5.2" height="24.85"/></clipPath><clipPath id="ae"><rect class="gn" x="74.19" y="374.87" width="5.21" height="24.85"/></clipPath><clipPath id="af"><rect class="gn" x="86.14" y="374.87" width="5.2" height="24.85"/></clipPath><clipPath id="ag"><rect class="gn" x="98.09" y="374.87" width="5.2" height="24.85"/></clipPath><clipPath id="ah"><rect class="gn" x="110.03" y="374.87" width="5.2" height="24.85"/></clipPath><clipPath id="ai"><rect class="gn" x="121.98" y="374.87" width="5.2" height="24.85"/></clipPath><clipPath id="aj"><rect class="gn" x="133.92" y="374.87" width="5.21" height="24.85"/></clipPath><clipPath id="ak"><rect class="gn" x="145.87" y="374.87" width="5.2" height="24.85"/></clipPath><clipPath id="al"><rect class="gn" x="157.82" y="374.87" width="5.2" height="24.85"/></clipPath><clipPath id="am"><rect class="gn" x="46.61" y="350.02" width="132.05" height="2.82"/></clipPath><clipPath id="an"><rect class="gn" x="56.28" y="350.02" width="5.2" height="24.85"/></clipPath><clipPath id="ao"><rect class="gn" x="68.22" y="350.02" width="5.2" height="24.85"/></clipPath><clipPath id="ap"><rect class="gn" x="80.17" y="350.02" width="5.2" height="24.85"/></clipPath><clipPath id="aq"><rect class="gn" x="92.11" y="350.02" width="5.21" height="24.85"/></clipPath><clipPath id="ar"><rect class="gn" x="104.06" y="350.02" width="5.2" height="24.85"/></clipPath><clipPath id="as"><rect class="gn" x="116" y="350.02" width="5.21" height="24.85"/></clipPath><clipPath id="at"><rect class="gn" x="127.95" y="350.02" width="5.2" height="24.85"/></clipPath><clipPath id="au"><rect class="gn" x="139.9" y="350.02" width="5.2" height="24.85"/></clipPath><clipPath id="av"><rect class="gn" x="151.84" y="350.02" width="5.2" height="24.85"/></clipPath><clipPath id="aw"><rect class="gn" x="163.79" y="350.02" width="5.2" height="24.85"/></clipPath><clipPath id="ax"><rect class="gn" x="40.81" y="325.17" width="132.05" height="2.82"/></clipPath><clipPath id="ay"><rect class="gn" x="157.99" y="325.17" width="5.2" height="24.85"/></clipPath><clipPath id="b`"><rect class="gn" x="146.04" y="325.17" width="5.2" height="24.85"/></clipPath><clipPath id="ba"><rect class="gn" x="134.1" y="325.17" width="5.2" height="24.85"/></clipPath><clipPath id="bb"><rect class="gn" x="122.15" y="325.17" width="5.2" height="24.85"/></clipPath><clipPath id="bc"><rect class="gn" x="110.2" y="325.17" width="5.21" height="24.85"/></clipPath><clipPath id="bd"><rect class="gn" x="98.26" y="325.17" width="5.2" height="24.85"/></clipPath><clipPath id="be"><rect class="gn" x="86.31" y="325.17" width="5.21" height="24.85"/></clipPath><clipPath id="bf"><rect class="gn" x="74.37" y="325.17" width="5.2" height="24.85"/></clipPath><clipPath id="bg"><rect class="gn" x="62.42" y="325.17" width="5.2" height="24.85"/></clipPath><clipPath id="bh"><rect class="gn" x="50.48" y="325.17" width="5.2" height="24.85"/></clipPath><clipPath id="bi"><rect class="gn" x="46.19" y="300.32" width="132.04" height="2.82"/></clipPath><clipPath id="bj"><rect class="gn" x="163.36" y="300.32" width="5.21" height="24.85"/></clipPath><clipPath id="bk"><rect class="gn" x="151.42" y="300.32" width="5.2" height="24.85"/></clipPath><clipPath id="bl"><rect class="gn" x="139.47" y="300.32" width="5.2" height="24.85"/></clipPath><clipPath id="bm"><rect class="gn" x="127.53" y="300.32" width="5.2" height="24.85"/></clipPath><clipPath id="bn"><rect class="gn" x="115.58" y="300.32" width="5.2" height="24.85"/></clipPath><clipPath id="bo"><rect class="gn" x="103.63" y="300.32" width="5.21" height="24.85"/></clipPath><clipPath id="bp"><rect class="gn" x="91.69" y="300.32" width="5.2" height="24.85"/></clipPath><clipPath id="bq"><rect class="gn" x="79.74" y="300.32" width="5.2" height="24.85"/></clipPath><clipPath id="br"><rect class="gn" x="67.8" y="300.32" width="5.2" height="24.85"/></clipPath><clipPath id="bs"><rect class="gn" x="55.85" y="300.32" width="5.2" height="24.85"/></clipPath><clipPath id="bt"><rect class="gn" x="49.98" y="275.47" width="132.05" height="2.82"/></clipPath><clipPath id="bu"><rect class="gn" x="167.16" y="275.47" width="5.2" height="24.85"/></clipPath><clipPath id="bv"><rect class="gn" x="155.21" y="275.47" width="5.21" height="24.85"/></clipPath><clipPath id="bw"><rect class="gn" x="143.27" y="275.47" width="5.2" height="24.85"/></clipPath><clipPath id="bx"><rect class="gn" x="131.32" y="275.47" width="5.2" height="24.85"/></clipPath><clipPath id="by"><rect class="gn" x="119.38" y="275.47" width="5.2" height="24.85"/></clipPath><clipPath id="c`"><rect class="gn" x="107.43" y="275.47" width="5.2" height="24.85"/></clipPath><clipPath id="ca"><rect class="gn" x="95.48" y="275.47" width="5.21" height="24.85"/></clipPath><clipPath id="cb"><rect class="gn" x="83.54" y="275.47" width="5.2" height="24.85"/></clipPath><clipPath id="cc"><rect class="gn" x="71.59" y="275.47" width="5.21" height="24.85"/></clipPath><clipPath id="cd"><rect class="gn" x="59.65" y="275.47" width="5.2" height="24.85"/></clipPath><clipPath id="ce"><rect class="gn" x="44.01" y="250.62" width="132.04" height="2.82"/></clipPath><clipPath id="cf"><rect class="gn" x="161.19" y="250.62" width="5.2" height="24.85"/></clipPath><clipPath id="cg"><rect class="gn" x="149.24" y="250.62" width="5.2" height="24.85"/></clipPath><clipPath id="ch"><rect class="gn" x="137.29" y="250.62" width="5.21" height="24.85"/></clipPath><clipPath id="ci"><rect class="gn" x="125.35" y="250.62" width="5.2" height="24.85"/></clipPath><clipPath id="cj"><rect class="gn" x="113.4" y="250.62" width="5.21" height="24.85"/></clipPath><clipPath id="ck"><rect class="gn" x="101.46" y="250.62" width="5.2" height="24.85"/></clipPath><clipPath id="cl"><rect class="gn" x="89.51" y="250.62" width="5.2" height="24.85"/></clipPath><clipPath id="cm"><rect class="gn" x="77.57" y="250.62" width="5.2" height="24.85"/></clipPath><clipPath id="cn"><rect class="gn" x="65.62" y="250.62" width="5.2" height="24.85"/></clipPath><clipPath id="co"><rect class="gn" x="53.67" y="250.62" width="5.21" height="24.85"/></clipPath><clipPath id="cp"><rect class="gn" x="80.59" y="152.2" width="397.83" height="299.39"/></clipPath><clipPath id="cq"><rect class="gn" x="95.07" y="159.91" width="375.04" height="284.35"/></clipPath><clipPath id="cr"><rect class="gn" x="348.31" y="367.19" width="19.37" height="48.76"/></clipPath><clipPath id="cs"><rect class="gn" x="396.66" y="322.38" width="19.37" height="48.76"/></clipPath><clipPath id="ct"><rect class="gn" x="445.91" y="352.84" width="19.38" height="43.4"/></clipPath><clipPath id="cu"><rect class="gn" x="252.55" y="106.41" width="34.64" height="41.67"/></clipPath><clipPath id="cv"><rect class="gn" x="260.99" y="119.88" width="23.99" height="27.35"/></clipPath><clipPath id="cw"><rect class="gn" x="248.6" y="416.16" width="11.31" height="14.63"/></clipPath><clipPath id="cx"><rect class="gn" x="314.89" y="417.93" width="11.94" height="12.62"/></clipPath><clipPath id="cy"><rect class="gn" x="263.36" y="105.63" width="68.35" height="96.87"/></clipPath><clipPath id="d`"><rect class="gn" x="317.46" y="126.24" width="10.54" height="24.45"/></clipPath><clipPath id="da"><rect class="gn" x="296.89" y="84.85" width="9.38" height="11.14"/></clipPath><clipPath id="db"><rect class="gn" x="280.4" y="221.41" width="14.28" height="63.16"/></clipPath><clipPath id="dc"><rect class="gn" x="209.12" y="155.19" width="99.95" height="112.78"/></clipPath><clipPath id="dd"><rect class="gn" x="195.01" y="155.13" width="98.28" height="60.31"/></clipPath><clipPath id="de"><rect class="gn" x="315.46" y="110.6" width="34.85" height="43.51"/></clipPath></defs><g class="ed"><g id="a"/><g id="b"><g id="c"><g><path class="fd" d="M64.92,4.48H441.9c.62,0,1.12,.5,1.12,1.12s-.5,1.12-1.12,1.12H64.92c-.62,0-1.12-.5-1.12-1.12s.51-1.12,1.12-1.12"/><path class="fd" d="M58.19,5.6c0,3.1,2.51,5.6,5.6,5.6s5.6-2.51,5.6-5.6-2.51-5.6-5.6-5.6-5.6,2.51-5.6,5.6"/><path class="fd" d="M432.45,11.88h0c.83,0,1.51-.68,1.51-1.51v-3.25c0-.83-.68-1.51-1.51-1.51s-1.51,.68-1.51,1.51v3.25c0,.83,.68,1.51,1.51,1.51"/><path class="fd" d="M81.82,11.88h0c.83,0,1.51-.68,1.51-1.51v-3.25c0-.83-.68-1.51-1.51-1.51s-1.51,.68-1.51,1.51v3.25c0,.83,.68,1.51,1.51,1.51"/><g class="ds"><g class="gi"><rect class="hx" x="65.28" y="5.6" width="361.62" height="40.73"/></g></g><path class="fd" d="M408.83,5.6c0,3.1,2.51,5.6,5.6,5.6s5.6-2.51,5.6-5.6-2.51-5.6-5.6-5.6-5.6,2.51-5.6,5.6"/><rect class="fd" x="322.44" y="254.98" width="22.94" height="153.36"/><polygon class="dj" points="328.48 408.34 322.44 408.34 322.44 387.46 334.8 387.46 328.48 408.34"/><rect class="fd" x="508.74" y="254.98" width="22.95" height="153.36"/><rect class="dj" x="322.44" y="254.98" width="191.56" height="140.55"/><rect class="fd" x="327.12" y="261.21" width="182.2" height="38.54"/><path class="dj" d="M363.27,273.19h105.85c5.89,0,11.51-4.75,15.56-13.15h-136.98c4.05,8.4,9.68,13.15,15.56,13.15"/><polygon class="dj" points="507.97 408.34 514 408.34 514 387.46 501.65 387.46 507.97 408.34"/><rect class="fd" x="327.12" y="305.98" width="182.2" height="38.54"/><path class="dj" d="M363.27,317.96h105.85c5.89,0,11.51-4.75,15.56-13.15h-136.98c4.05,8.4,9.68,13.15,15.56,13.15"/><rect class="fd" x="327.12" y="350.76" width="182.2" height="38.54"/><path class="dj" d="M363.27,362.73h105.85c5.89,0,11.51-4.75,15.56-13.15h-136.98c4.05,8.4,9.68,13.15,15.56,13.15"/><path class="gv" d="M461.39,178.09c-3.63-12.21,41.59-73.38,61.45-71.55,19.86,1.83-15.06,76.02-25.77,82.58-12.1,7.41-31.73,2.27-35.68-11.03"/><path class="gv" d="M458.8,195.73c-1.75-6.24,29.87-16.39,42.43-9.03,12.56,7.36-13.09,26.3-20.22,25.44-8.04-.97-20.31-9.62-22.21-16.41"/><path class="gv" d="M497.2,190.13c4.38-8.19-27.82-56.12-44.97-56.99s4.88,55.09,13.34,60.87c9.55,6.52,26.86,5.05,31.63-3.87"/><path class="gm" d="M480.7,164.63h-.07c-1.68-.03-3.13,1.19-3.38,2.85-3.73,25.34-4.18,50.88-1.34,76.33,.19,1.67,1.6,2.94,3.28,2.97,.02,0,.05,0,.07,0,2.02,.03,3.59-1.71,3.37-3.72-2.7-24.88-2.26-49.84,1.31-74.6,.29-2-1.22-3.8-3.24-3.84"/><path class="g`" d="M478.25,254.98h0c11.88,0,21.91-7,24.34-16.47,.65-2.5,1.38-4.99,2.54-7.36l.19-.38h-54.14l.19,.38c1.16,2.37,1.89,4.86,2.54,7.36,2.44,9.47,12.46,16.47,24.34,16.47"/><path class="dj" d="M451.07,233.14h54.36c1.51,0,2.83-1.48,3.21-3.61,.54-3.04-1.04-6.01-3.21-6.01h-54.36c-2.16,0-3.75,2.96-3.21,6.01,.38,2.12,1.7,3.61,3.21,3.61"/><rect class="dj" x="216.5" y="311.74" width="66.99" height="96.61"/><rect class="gv" x="17.28" y="311.74" width="199.21" height="96.61"/><rect class="g`" x="34.79" y="344.07" width="42.12" height="42.89"/><rect class="g`" x="91.97" y="344.07" width="42.12" height="42.89"/><g class="gp"><g class="gd"><rect class="fd" x="16.58" y="322.01" width="266.9" height="5.51"/></g></g><rect class="dj" x="216.49" y="308.4" width="70.68" height="15.93"/><rect class="gv" x="13.59" y="308.4" width="202.91" height="15.93"/><path class="dj" d="M70.99,281.29s1.27,27.12,50.16,27.12,50.16-27.12,50.16-27.12H70.99Z"/><path class="dj" d="M70.99,263.32s1.27,27.12,50.16,27.12,50.16-27.12,50.16-27.12H70.99Z"/><path class="gv" d="M521.47,453.85c0,8.41-116.73,15.23-260.73,15.23S0,462.26,0,453.85s116.73-15.23,260.73-15.23,260.73,6.82,260.73,15.23"/><rect class="hd" x="49.81" y="424.57" width="132.05" height="24.85"/><g class="gk"><g class="gy"><rect x="49.81" y="424.57" width="132.05" height="2.82"/></g></g><g class="gk"><g class="ht"><rect x="59.48" y="424.57" width="5.2" height="24.85"/></g></g><g class="gk"><g class="dr"><rect x="71.42" y="424.57" width="5.2" height="24.85"/></g></g><g class="gk"><g class="ho"><rect x="83.37" y="424.57" width="5.2" height="24.85"/></g></g><g class="gk"><g class="ha"><rect x="95.32" y="424.57" width="5.2" height="24.85"/></g></g><g class="gk"><g class="hp"><rect x="107.26" y="424.57" width="5.2" height="24.85"/></g></g><g class="gk"><g class="do"><rect x="119.21" y="424.57" width="5.2" height="24.85"/></g></g><g class="gk"><g class="fo"><rect x="131.15" y="424.57" width="5.2" height="24.85"/></g></g><g class="gk"><g class="eu"><rect x="143.1" y="424.57" width="5.2" height="24.85"/></g></g><g class="gk"><g class="fg"><rect x="155.05" y="424.57" width="5.2" height="24.85"/></g></g><g class="gk"><g class="go"><rect x="166.99" y="424.57" width="5.2" height="24.85"/></g></g><rect class="hd" x="44.44" y="399.72" width="132.05" height="24.85"/><g class="gk"><g class="hb"><rect x="44.44" y="399.72" width="132.05" height="2.82"/></g></g><g class="gk"><g class="hn"><rect x="54.1" y="399.72" width="5.2" height="24.85"/></g></g><g class="gk"><g class="hj"><rect x="66.05" y="399.72" width="5.2" height="24.85"/></g></g><g class="gk"><g class="fv"><rect x="77.99" y="399.72" width="5.2" height="24.85"/></g></g><g class="gk"><g class="fc"><rect x="89.94" y="399.72" width="5.2" height="24.85"/></g></g><g class="gk"><g class="gj"><rect x="101.89" y="399.72" width="5.2" height="24.85"/></g></g><g class="gk"><g class="ge"><rect x="113.83" y="399.72" width="5.2" height="24.85"/></g></g><g class="gk"><g class="el"><rect x="125.78" y="399.72" width="5.2" height="24.85"/></g></g><g class="gk"><g class="hc"><rect x="137.72" y="399.72" width="5.2" height="24.85"/></g></g><g class="gk"><g class="ey"><rect x="149.67" y="399.72" width="5.2" height="24.85"/></g></g><g class="gk"><g class="es"><rect x="161.62" y="399.72" width="5.2" height="24.85"/></g></g><rect class="hd" x="40.64" y="374.87" width="132.05" height="24.85"/><g class="gk"><g class="fa"><rect x="40.64" y="374.87" width="132.05" height="2.82"/></g></g><g class="gk"><g class="dk"><rect x="50.31" y="374.87" width="5.2" height="24.85"/></g></g><g class="gk"><g class="hw"><rect x="62.25" y="374.87" width="5.2" height="24.85"/></g></g><g class="gk"><g class="ft"><rect x="74.2" y="374.87" width="5.2" height="24.85"/></g></g><g class="gk"><g class="gg"><rect x="86.14" y="374.87" width="5.2" height="24.85"/></g></g><g class="gk"><g class="ei"><rect x="98.09" y="374.87" width="5.2" height="24.85"/></g></g><g class="gk"><g class="ec"><rect x="110.04" y="374.87" width="5.2" height="24.85"/></g></g><g class="gk"><g class="gf"><rect x="121.98" y="374.87" width="5.2" height="24.85"/></g></g><g class="gk"><g class="et"><rect x="133.93" y="374.87" width="5.2" height="24.85"/></g></g><g class="gk"><g class="dq"><rect x="145.87" y="374.87" width="5.2" height="24.85"/></g></g><g class="gk"><g class="dg"><rect x="157.82" y="374.87" width="5.2" height="24.85"/></g></g><rect class="hd" x="46.61" y="350.02" width="132.05" height="24.85"/><g class="gk"><g class="hv"><rect x="46.61" y="350.02" width="132.05" height="2.82"/></g></g><g class="gk"><g class="gx"><rect x="56.28" y="350.02" width="5.2" height="24.85"/></g></g><g class="gk"><g class="gs"><rect x="68.23" y="350.02" width="5.2" height="24.85"/></g></g><g class="gk"><g class="hr"><rect x="80.17" y="350.02" width="5.2" height="24.85"/></g></g><g class="gk"><g class="hm"><rect x="92.12" y="350.02" width="5.2" height="24.85"/></g></g><g class="gk"><g class="ea"><rect x="104.06" y="350.02" width="5.2" height="24.85"/></g></g><g class="gk"><g class="ef"><rect x="116.01" y="350.02" width="5.2" height="24.85"/></g></g><g class="gk"><g class="ej"><rect x="127.95" y="350.02" width="5.2" height="24.85"/></g></g><g class="gk"><g class="du"><rect x="139.9" y="350.02" width="5.2" height="24.85"/></g></g><g class="gk"><g class="dh"><rect x="151.85" y="350.02" width="5.2" height="24.85"/></g></g><g class="gk"><g class="fm"><rect x="163.79" y="350.02" width="5.2" height="24.85"/></g></g><rect class="hd" x="40.81" y="325.17" width="132.05" height="24.85"/><g class="gk"><g class="ep"><rect x="40.81" y="325.17" width="132.05" height="2.82"/></g></g><g class="gk"><g class="hy"><rect x="157.99" y="325.17" width="5.2" height="24.85"/></g></g><g class="gk"><g class="gq"><rect x="146.05" y="325.17" width="5.2" height="24.85"/></g></g><g class="gk"><g class="fh"><rect x="134.1" y="325.17" width="5.2" height="24.85"/></g></g><g class="gk"><g class="hi"><rect x="122.15" y="325.17" width="5.2" height="24.85"/></g></g><g class="gk"><g class="hk"><rect x="110.21" y="325.17" width="5.2" height="24.85"/></g></g><g class="gk"><g class="fw"><rect x="98.26" y="325.17" width="5.2" height="24.85"/></g></g><g class="gk"><g class="em"><rect x="86.32" y="325.17" width="5.2" height="24.85"/></g></g><g class="gk"><g class="e`"><rect x="74.37" y="325.17" width="5.2" height="24.85"/></g></g><g class="gk"><g class="ek"><rect x="62.43" y="325.17" width="5.2" height="24.85"/></g></g><g class="gk"><g class="df"><rect x="50.48" y="325.17" width="5.2" height="24.85"/></g></g><rect class="hd" x="46.19" y="300.32" width="132.05" height="24.85"/><g class="gk"><g class="fi"><rect x="46.19" y="300.32" width="132.05" height="2.82"/></g></g><g class="gk"><g class="ew"><rect x="163.37" y="300.32" width="5.2" height="24.85"/></g></g><g class="gk"><g class="fs"><rect x="151.42" y="300.32" width="5.2" height="24.85"/></g></g><g class="gk"><g class="gt"><rect x="139.48" y="300.32" width="5.2" height="24.85"/></g></g><g class="gk"><g class="di"><rect x="127.53" y="300.32" width="5.2" height="24.85"/></g></g><g class="gk"><g class="en"><rect x="115.58" y="300.32" width="5.2" height="24.85"/></g></g><g class="gk"><g class="fq"><rect x="103.64" y="300.32" width="5.2" height="24.85"/></g></g><g class="gk"><g class="ex"><rect x="91.69" y="300.32" width="5.2" height="24.85"/></g></g><g class="gk"><g class="gl"><rect x="79.75" y="300.32" width="5.2" height="24.85"/></g></g><g class="gk"><g class="dv"><rect x="67.8" y="300.32" width="5.2" height="24.85"/></g></g><g class="gk"><g class="ev"><rect x="55.86" y="300.32" width="5.2" height="24.85"/></g></g><rect class="hd" x="49.99" y="275.47" width="132.05" height="24.85"/><g class="gk"><g class="gh"><rect x="49.99" y="275.47" width="132.05" height="2.82"/></g></g><g class="gk"><g class="fy"><rect x="167.16" y="275.47" width="5.2" height="24.85"/></g></g><g class="gk"><g class="eh"><rect x="155.22" y="275.47" width="5.2" height="24.85"/></g></g><g class="gk"><g class="gb"><rect x="143.27" y="275.47" width="5.2" height="24.85"/></g></g><g class="gk"><g class="fx"><rect x="131.33" y="275.47" width="5.2" height="24.85"/></g></g><g class="gk"><g class="hl"><rect x="119.38" y="275.47" width="5.2" height="24.85"/></g></g><g class="gk"><g class="fk"><rect x="107.43" y="275.47" width="5.2" height="24.85"/></g></g><g class="gk"><g class="dw"><rect x="95.49" y="275.47" width="5.2" height="24.85"/></g></g><g class="gk"><g class="hf"><rect x="83.54" y="275.47" width="5.2" height="24.85"/></g></g><g class="gk"><g class="dp"><rect x="71.6" y="275.47" width="5.2" height="24.85"/></g></g><g class="gk"><g class="dy"><rect x="59.65" y="275.47" width="5.2" height="24.85"/></g></g><rect class="hd" x="44.01" y="250.62" width="132.05" height="24.85"/><g class="gk"><g class="dx"><rect x="44.01" y="250.62" width="132.05" height="2.82"/></g></g><g class="gk"><g class="fu"><rect x="161.19" y="250.62" width="5.2" height="24.85"/></g></g><g class="gk"><g class="ff"><rect x="149.25" y="250.62" width="5.2" height="24.85"/></g></g><g class="gk"><g class="f`"><rect x="137.3" y="250.62" width="5.2" height="24.85"/></g></g><g class="gk"><g class="dn"><rect x="125.35" y="250.62" width="5.2" height="24.85"/></g></g><g class="gk"><g class="gw"><rect x="113.41" y="250.62" width="5.2" height="24.85"/></g></g><g class="gk"><g class="hs"><rect x="101.46" y="250.62" width="5.2" height="24.85"/></g></g><g class="gk"><g class="gu"><rect x="89.52" y="250.62" width="5.2" height="24.85"/></g></g><g class="gk"><g class="hu"><rect x="77.57" y="250.62" width="5.2" height="24.85"/></g></g><g class="gk"><g class="he"><rect x="65.62" y="250.62" width="5.2" height="24.85"/></g></g><g class="gk"><g class="h`"><rect x="53.68" y="250.62" width="5.2" height="24.85"/></g></g><path class="hd" d="M463.33,152.27l-52.66,9.03c-4.56,.78-5.89,6.68-2.12,9.35l9.71,6.87-59.52,84.15c-1.63,2.31-4.82,2.85-7.13,1.22l-87.49-61.9c-2.3-1.63-5.49-1.08-7.13,1.22L80.6,451.59h63.4l125.36-177.22c1.63-2.3,4.82-2.85,7.13-1.22l87.5,61.89c2.31,1.63,5.49,1.08,7.13-1.22l89.41-126.41,9.71,6.87c3.77,2.67,8.89-.56,8.11-5.11l-9.03-52.66c-.48-2.82-3.17-4.72-5.99-4.24"/><g class="gk"><g class="hh"><path d="M463.33,152.27l-52.66,9.03c-4.56,.78-5.89,6.68-2.12,9.35l9.71,6.87-59.52,84.15c-1.63,2.31-4.82,2.85-7.13,1.22l-87.49-61.9c-2.3-1.63-5.49-1.08-7.13,1.22L80.6,451.59h63.4l125.36-177.22c1.63-2.3,4.82-2.85,7.13-1.22l87.5,61.89c2.31,1.63,5.49,1.08,7.13-1.22l89.41-126.41,9.71,6.87c3.77,2.67,8.89-.56,8.11-5.11l-9.03-52.66c-.48-2.82-3.17-4.72-5.99-4.24"/></g></g><g class="gk"><g class="eb"><path class="dm" d="M140.03,444.26h-44.62c-.13,0-.24-.07-.3-.18-.06-.11-.05-.25,.02-.35l163.42-231.03c.84-1.19,2.09-1.98,3.53-2.22,1.43-.25,2.88,.08,4.07,.92l87.5,61.9c1.04,.74,2.31,1.02,3.57,.81,1.26-.22,2.35-.91,3.09-1.95l68.18-96.39-10.81-7.65c-.11-.08-.17-.22-.14-.35,.03-.13,.14-.23,.27-.26l44.32-7.6c.09-.02,.18,0,.25,.06,.07,.05,.12,.13,.14,.22l7.6,44.32c.02,.13-.04,.27-.15,.34s-.26,.07-.37-.01l-10.81-7.65-89.22,126.14c-.84,1.19-2.09,1.98-3.53,2.22-1.43,.24-2.88-.08-4.07-.92l-87.5-61.89c-2.15-1.52-5.14-1.01-6.66,1.14l-127.5,180.24c-.06,.09-.17,.14-.28,.14m-43.97-.67h43.8l127.4-180.09c1.74-2.45,5.14-3.04,7.59-1.3l87.5,61.89c1.04,.74,2.31,1.02,3.56,.81,1.26-.22,2.36-.91,3.09-1.95l89.41-126.41c.05-.07,.13-.12,.22-.14,.08-.01,.18,0,.25,.06l10.42,7.37-7.4-43.19-43.19,7.4,10.43,7.37c.07,.05,.12,.13,.14,.22,.02,.09,0,.18-.06,.25l-68.38,96.67c-.84,1.19-2.09,1.98-3.53,2.22-1.44,.25-2.88-.08-4.07-.92l-87.5-61.9c-1.04-.74-2.31-1.02-3.57-.81-1.26,.21-2.35,.91-3.09,1.95L96.06,443.59Z"/></g></g><rect class="fn" x="387.06" y="367.19" width="5.53" height="82.23"/><rect class="fn" x="435.41" y="322.38" width="5.53" height="127.04"/><rect class="fn" x="484.67" y="352.84" width="5.53" height="96.57"/><rect class="hd" x="348.31" y="367.19" width="38.75" height="82.23"/><g class="gk"><g class="hq"><polygon class="dm" points="348.31 367.19 348.31 415.94 367.69 367.19 348.31 367.19"/></g></g><rect class="hd" x="396.66" y="322.38" width="38.75" height="127.04"/><g class="gk"><g class="er"><polygon class="dm" points="396.66 322.38 396.66 371.13 416.04 322.38 396.66 322.38"/></g></g><rect class="hd" x="445.91" y="352.84" width="38.75" height="96.57"/><g class="gk"><g class="fb"><polygon class="dm" points="445.91 352.84 445.91 396.24 465.29 352.84 445.91 352.84"/></g></g><polygon class="gr" points="258.15 442.69 247.76 440.73 249.52 416.15 259.91 418.1 258.15 442.69"/><polygon class="gr" points="328.1 442.41 317.53 442.41 314.89 417.93 325.47 417.93 328.1 442.41"/><path class="fn" d="M316.66,441.19h12.89c.43,0,.81,.3,.9,.72l2.09,9.4c.22,.98-.55,1.9-1.55,1.88-4.15-.07-7.17-.32-12.4-.32-3.21,0-12.91,.33-17.34,.33s-5.02-4.39-3.2-4.79c8.15-1.78,14.29-4.24,16.9-6.58,.47-.42,1.08-.65,1.72-.65"/><path class="fn" d="M247.98,438.45l11.38,1.96c.43,.07,.74,.43,.77,.87l.46,9.62c.05,1-.84,1.78-1.82,1.6-4.09-.78-9.98-2.04-15.14-2.93-6.03-1.04-8.98-1.79-16.05-3.01-4.28-.74-3.34-5.42-1.48-5.5,8.46-.38,11.45,.91,19.24-2.22,.85-.34,1.75-.53,2.65-.38"/><path class="gr" d="M284.18,118.81c-.36,1.06-.64,1.86-.98,2.75-.32,.87-.67,1.72-1.02,2.57-.7,1.7-1.45,3.37-2.22,5.03-1.54,3.33-3.3,6.57-5.23,9.75-3.91,6.32-8.58,12.49-15.15,17.6-1.69,1.23-3.44,2.43-5.41,3.41-.47,.26-.97,.5-1.49,.72-.53,.23-.97,.44-1.58,.68-1.36,.51-2.54,.78-3.67,1-2.24,.4-4.21,.48-6.15,.53-1.93,.04-3.79-.04-5.62-.18-7.31-.56-14.17-1.88-21.07-3.81l1.06-7.87c6.7-.25,13.54-.46,19.95-1.03,1.6-.16,3.17-.35,4.66-.57,1.48-.23,2.92-.53,4.02-.89,.54-.17,1.02-.37,1.24-.51,.44-.27,1.04-.52,1.54-.88,1.06-.62,2.08-1.47,3.1-2.33,2.04-1.79,3.99-3.93,5.77-6.34,1.81-2.38,3.48-4.98,5.03-7.71,1.58-2.7,2.99-5.55,4.37-8.43,.68-1.44,1.33-2.9,1.94-4.37l.9-2.2,.81-2.07,15.18,5.15Z"/><path class="hd" d="M279.09,106.41c19.3-.02-1.91,41.67-1.91,41.67l-24.62-9.95s6.72-14.51,11.15-22.8c4.18-7.84,11.11-8.91,15.39-8.92"/><g class="dt"><g class="eq"><path class="dm" d="M279.09,106.41c19.3-.02-1.91,41.67-1.91,41.67l-24.62-9.95s6.72-14.51,11.15-22.8c4.18-7.84,11.11-8.91,15.39-8.92"/></g></g><g class="gk"><g class="fl"><path d="M274.36,119.88c-7.06,4.96-11.97,14.17-13.37,21.65l14.07,5.7c2.55-3.82,5.04-8.32,7.79-12.28,.75-2.06,1.49-4.22,2.14-6.41l-10.62-8.66Z"/></g></g><path class="gr" d="M221.68,151.93l-8.46-4.78-6.48,12.15s5.82,1.11,11.29-.29l3.66-7.09Z"/><polygon class="gr" points="205.19 147.15 200.48 157.83 206.74 159.3 213.22 147.15 205.19 147.15"/><g class="gk"><g class="eg"><polygon points="249.52 416.16 248.61 428.83 259.01 430.78 259.92 418.11 249.52 416.16"/></g></g><g class="gk"><g class="ee"><polygon points="325.47 417.93 314.89 417.93 316.25 430.56 326.83 430.56 325.47 417.93"/></g></g><path class="hd" d="M331.71,111.02c-3.26,11.69-5.35,23.58-6.72,34.78-1,8.19-1.6,16.01-1.97,23.1-.88,16.62-.51,29.29-1.01,33.59-8.27-.57-39.43-2.74-56.42-3.93-7.68-60.15,6.99-91.14,6.99-91.14,0,0,6.25-1.25,13.51-1.67,.96-.06,1.93-.1,2.92-.11,6.39-.14,16.81,.82,23.99,1.67,1.51,.18,3.04,.4,4.52,.64,7.55,1.23,14.2,3.07,14.2,3.07"/><g class="dt"><g class="fp"><path class="dm" d="M331.71,111.02c-3.26,11.69-5.35,23.58-6.72,34.78-1,8.19-1.6,16.01-1.97,23.1-.88,16.62-.51,29.29-1.01,33.59-8.27-.57-39.43-2.74-56.42-3.93-7.68-60.15,6.99-91.14,6.99-91.14,0,0,6.25-1.25,13.51-1.67,.96-.06,1.93-.1,2.92-.11,6.39-.14,16.81,.82,23.99,1.67,1.51,.18,3.04,.4,4.52,.64,7.55,1.23,14.2,3.07,14.2,3.07"/></g></g><g class="gk"><g class="fe"><path d="M317.46,126.24c-.03,9.46,2.58,17.45,6.98,24.45,.16-1.61,.34-3.24,.54-4.88,.75-6.16,1.72-12.53,3.01-18.97l-10.54-.6Z"/></g></g><path class="gr" d="M312.49,80.14c-2.05,7.61-4.55,21.65,.49,27.17-4.24,3.8-10.35,6.86-19,6.07-6.63-.61-6.64-5.27-4.98-7.74,8.75-1.45,8.97-7.85,7.89-13.96l15.6-11.54Z"/><g class="gk"><g class="fr"><path d="M306.13,84.85l-9.23,6.83c.26,1.44,.44,2.9,.44,4.31,3.32-.25,8.09-3.54,8.68-6.96,.29-1.7,.34-3.36,.11-4.18"/></g></g><path class="fn" d="M290.08,55.64c-4.07,1.6-5.52,17.21,2.69,15.67,8.21-1.53,5.44-18.86-2.69-15.67"/><path class="gr" d="M316.72,71.26c-3.29,9.97-4.7,15.97-11.19,19.82-9.75,5.8-21.04-2.13-20.79-12.88,.22-9.67,5.56-24.35,16.53-25.77,10.81-1.4,18.74,8.86,15.45,18.83"/><path class="fn" d="M312.98,78.12c-4.18,.08-7.61-12.58,.83-16.12-6.65-.77-27.05,.35-30.7-8.76-3.66-9.11,10.53-10.53,15.35-7.1-1.53-5.01,4.71-12.4,15.93-5.68s11.07,15.02,10.03,17.48c5.01,1.35,5.99,12.48,.45,13.97,3.24,4.48,.44,13.93-8.3,11.92-.3,5.49-6.42,3.08-6.05-1.13,.37-4.21,2.46-4.59,2.46-4.59"/><path class="fn" d="M294.35,80.55h0c4.19,1.07,6.84-1.3,6.95-1.41,.11-.1,.12-.27,.02-.38-.1-.11-.27-.12-.38-.02-.03,.02-2.56,2.28-6.45,1.28-.14-.04-.29,.05-.33,.19-.04,.14,.05,.29,.19,.33"/><path class="gr" d="M318.81,81.83c-2.05,1.95-4.81,2.77-7.13,2.68-3.49-.14-4.17-3.53-2.3-6.26,1.68-2.46,5.53-5.36,8.61-3.88,3.03,1.46,3.17,5.23,.83,7.46"/><path class="fn" d="M245.11,424.72l17.42,4.14s6.2-68.12,11.51-105.54c1.41-9.92,3.58-23.88,6.9-38.75,4.19-18.74,9.44-39,13.74-54.87,4.54-16.71,7.99-28.54,7.99-28.54l-37.09-2.58s-20.07,87.53-22.2,119.74c-2.22,33.48,1.72,106.42,1.72,106.42"/><g class="gk"><g class="gc"><path d="M280.94,284.56c4.19-18.74,9.44-39,13.74-54.87l-3.85-8.29c-9.2,10.93-11.67,44.78-9.89,63.16"/></g></g><path class="fn" d="M285.6,199.96s4,90.53,8.47,121.19c4.89,33.58,17.3,106.96,17.3,106.96h19.37s-5.38-69.75-9.02-102.63c-4.15-37.45,.29-122.98,.29-122.98l-36.41-2.54Z"/><polygon class="hd" points="309.05 428.53 331.86 428.53 332.86 421.72 307.69 421.27 309.05 428.53"/><polygon class="hd" points="243.99 425.9 263.85 429.63 266.09 422.71 243.44 418.41 243.99 425.9"/><path class="fn" d="M301.4,70.46c-.22,.83-.83,1.38-1.37,1.24-.54-.14-.8-.93-.58-1.75,.22-.82,.83-1.38,1.37-1.24,.54,.14,.8,.93,.58,1.75"/><path class="fn" d="M292.08,68.01c-.22,.83-.83,1.38-1.37,1.24-.54-.14-.8-.93-.58-1.75,.22-.82,.83-1.38,1.37-1.24,.54,.14,.8,.93,.58,1.75"/><path class="dl" d="M294.14,68.78s-3.13,4.27-5.8,6.02c1.1,1.75,3.91,1.6,3.91,1.6l1.88-7.62Z"/><path class="fn" d="M304.3,67.79c-.18-.01-.35-.13-.42-.31-.85-2.07-2.66-2.43-2.68-2.43-.27-.05-.45-.31-.4-.58,.05-.27,.3-.46,.59-.4,.1,.02,2.36,.47,3.42,3.04,.11,.26-.02,.55-.27,.65-.08,.03-.15,.04-.23,.04"/><path class="fn" d="M288.14,63.33c-.1,0-.2-.05-.29-.12-.21-.18-.23-.5-.05-.71,1.8-2.1,4.1-1.83,4.2-1.81,.27,.04,.47,.29,.43,.56-.04,.27-.3,.46-.56,.43-.08,0-1.87-.21-3.31,1.47-.11,.13-.27,.18-.42,.17"/><path class="hd" d="M313.16,443.04c-.8,0-1.56-.14-2.04-.54-.38-.32-.55-.76-.52-1.32,.03-.42,.25-.61,.43-.71,1.17-.6,4.58,1.49,4.96,1.74,.09,.05,.13,.15,.11,.25-.02,.1-.09,.18-.19,.2-.73,.18-1.79,.38-2.77,.38m-1.57-2.19c-.13,0-.24,.02-.33,.06-.07,.04-.15,.1-.16,.29-.03,.4,.09,.7,.34,.91,.58,.49,1.96,.55,3.75,.19-1.19-.69-2.8-1.46-3.61-1.46"/><path class="hd" d="M315.87,442.67s-.08-.01-.12-.03c-1.09-.6-3.21-2.91-2.99-4.09,.04-.21,.2-.58,.8-.66,.39-.05,.75,.06,1.07,.32,1.23,1,1.48,4.06,1.49,4.19,0,.09-.04,.18-.11,.23-.04,.03-.09,.04-.14,.04m-2.13-4.29s-.08,0-.11,0c-.33,.04-.35,.19-.37,.25-.13,.7,1.21,2.45,2.3,3.27-.12-.89-.46-2.67-1.25-3.31-.18-.15-.37-.22-.57-.22"/><path class="hd" d="M246.71,439.71s-.03,0-.04,0c-1.74,.05-4.8-.06-5.76-1.27-.29-.36-.38-.8-.26-1.28,.07-.29,.25-.49,.52-.59,1.38-.47,5.21,2.36,5.64,2.69,.09,.06,.12,.17,.09,.28-.03,.09-.1,.15-.19,.17m-5.31-2.68s-.05,.01-.07,.02c-.11,.04-.17,.11-.2,.24-.08,.33-.03,.61,.16,.84,.54,.68,2.24,1.07,4.61,1.09-1.53-1.08-3.69-2.36-4.5-2.19"/><path class="hd" d="M246.71,439.71c-.06,.01-.14,0-.19-.04-1.16-.78-3.26-3.47-2.87-4.61,.09-.27,.35-.58,1.04-.53,.51,.04,.95,.26,1.3,.66,1.14,1.32,.93,4.17,.92,4.29,0,.09-.06,.17-.14,.21-.02,0-.04,.02-.06,.02m-2.35-4.67c-.19,.04-.23,.14-.24,.18-.24,.69,1.15,2.75,2.3,3.74,0-.84-.07-2.59-.82-3.45-.26-.3-.57-.46-.95-.49-.12,0-.22,0-.29,.01"/><path class="hd" d="M283.73,158.25l-4.29-3.06-70.33,98.45,4.29,3.06c27.19,19.42,64.97,13.12,84.39-14.06,19.42-27.19,13.12-64.97-14.06-84.39"/><g class="hg"><g class="ga"><path d="M283.73,158.25l-4.29-3.06-70.33,98.45,4.29,3.06c27.19,19.42,64.97,13.12,84.39-14.06,19.42-27.19,13.12-64.97-14.06-84.39"/></g></g><path class="hd" d="M179.57,212.11c-1-8.39-.39-16.75,1.81-24.86l1.3,.35c-2.16,7.93-2.75,16.12-1.77,24.34l-1.33,.16Z"/><path class="hd" d="M183.65,228.34c-1.19-3.04-2.17-6.2-2.9-9.38l1.31-.3c.71,3.12,1.67,6.21,2.84,9.19l-1.25,.49Z"/><path class="hd" d="M293.51,239.58c19.42-27.19,13.12-64.97-14.06-84.39-27.19-19.42-64.97-13.12-84.39,14.06-19.42,27.18-13.12,64.97,14.06,84.39,27.19,19.42,64.97,13.12,84.39-14.06"/><path class="dm" d="M230.01,219.71l9.49-13.28c-3.3-4.14-5.06-8.1-5.28-11.89-.22-3.78,.89-7.38,3.34-10.8,2.48-3.47,5.65-5.6,9.52-6.39,3.87-.79,7.75-.07,11.64,2.17l2.29-3.21,4.6,3.28-2.29,3.21c3.07,2.8,4.93,5.86,5.56,9.17,.64,3.31,.1,6.75-1.62,10.31l-8.77-4.68c1.29-2.84,1.23-5.44-.18-7.79l-8.85,12.39c4.09,5,6.28,9.25,6.55,12.75,.28,3.5-.81,6.96-3.25,10.39-2.73,3.83-6.19,6.22-10.38,7.19-4.19,.97-8.55,.28-13.1-2.08l-2.29,3.21-4.6-3.28,2.18-3.05c-3.34-3.06-5.33-6.54-5.99-10.45-.65-3.91,.19-8.18,2.53-12.79l8.91,5.02c-.87,1.93-1.28,3.84-1.22,5.73,.05,1.89,.46,3.52,1.2,4.88m23.78-33.29c-1.55-.47-3.06-.46-4.52,.03-1.46,.49-2.63,1.34-3.51,2.57-.8,1.12-1.21,2.4-1.22,3.85-.01,1.45,.46,2.95,1.41,4.53l7.84-10.97Zm-19.5,37.01c1.8,.84,3.61,1.02,5.44,.56,1.83-.46,3.31-1.49,4.45-3.07,1.01-1.42,1.47-2.93,1.36-4.56-.1-1.62-.91-3.39-2.42-5.29l-8.83,12.36Z"/><g class="hg"><g class="eo"><path d="M293.29,199.31c-2.59-11.33-9.18-21.8-19.38-29.09-22.14-15.82-52.92-10.69-68.74,11.45-7.28,10.19-10.12,22.22-8.91,33.77-3.04-13.27-.61-27.73,7.93-39.68,15.82-22.14,46.59-27.27,68.73-11.46,11.96,8.54,18.95,21.44,20.37,34.99"/></g></g><path class="gr" d="M333.07,116.81c1.33,1.71,2.45,3.24,3.59,4.9,1.13,1.63,2.23,3.27,3.31,4.93,2.14,3.34,4.16,6.75,6.05,10.27,1.91,3.5,3.63,7.15,5.22,10.89l1.16,2.83,1.04,2.92c.36,.96,.65,1.98,.95,2.98l.45,1.51,.11,.38,.21,.82c.15,.58,.2,1.13,.26,1.7,.16,2.21-.24,4.07-.73,5.59-.51,1.53-1.16,2.76-1.81,3.88-1.33,2.22-2.78,3.96-4.25,5.59-2.95,3.21-6.05,5.82-9.21,8.29-6.35,4.89-12.93,8.96-19.94,12.63l-4.35-6.64c5.62-4.8,11.26-9.86,16.36-14.98,2.54-2.57,4.95-5.22,6.89-7.85,.96-1.3,1.81-2.61,2.3-3.73,.25-.55,.41-1.05,.46-1.34,.05-.29-.04-.35-.04-.04-.02,.1,.01,.17,.02,.3,0,.04,.04,.15,.03,.13l-.12-.3-.47-1.19c-.32-.79-.6-1.59-.98-2.38l-1.07-2.38-1.15-2.38c-1.59-3.16-3.31-6.31-5.16-9.42-1.86-3.1-3.78-6.2-5.78-9.24-.99-1.53-2-3.05-3.04-4.55l-3.06-4.37,12.75-9.71Z"/><path class="hd" d="M331.71,111.02c9.91,2,18.6,26.24,18.6,26.24l-20.68,16.85s-6.78-12.32-12.2-24.21c-5.91-12.95,2.27-21.3,14.28-18.88"/><g class="dt"><g class="fj"><path class="dm" d="M331.71,111.02c9.91,2,18.6,26.24,18.6,26.24l-20.68,16.85s-6.78-12.32-12.2-24.21c-5.91-12.95,2.27-21.3,14.28-18.88"/></g></g><path class="gr" d="M317.57,189.34l-10.67,1.16,6.93,11.59s8.86-3.01,7.8-7.88l-4.05-4.87Z"/><polygon class="gr" points="300.53 196.63 306.71 205.94 313.83 202.1 306.9 190.5 300.53 196.63"/></g></g></g></g></svg>