<svg xmlns="http://www.w3.org/2000/svg" viewBox="0 0 52.95 46.38"><defs><style>.cls-1{fill:#fdcc69;}</style></defs><g id="Capa_2" data-name="Capa 2"><g id="Capa_1-2" data-name="Capa 1"><path class="cls-1" d="M19.88,30.63c2.08,2.35,4.4,4.45,6.58,6.69A5.39,5.39,0,0,1,28.17,41a4.81,4.81,0,0,1-2.94,5,5,5,0,0,1-5.7-1.13C16.27,41.58,13,38.33,9.8,35.1,7.1,32.39,4.39,29.7,1.7,27a5.09,5.09,0,0,1-.05-7.54q8.9-8.92,17.83-17.83a4.92,4.92,0,0,1,5.4-1.3,4.74,4.74,0,0,1,3.35,4.3,5.25,5.25,0,0,1-1.62,4.29c-2,2.06-4.1,4.1-6.14,6.15-.21.21-.39.46-.59.7l0,.08,0-.1a54,54,0,0,0,7-.7c4.24-.47,8.46-1,12.68-1.55,3.55-.43,7.09-.89,10.64-1.25,2-.2,2.81.62,2.81,2.59V31.56c0,2-.83,2.79-2.81,2.59-3.79-.4-7.57-.88-11.35-1.33-4.26-.52-8.52-1.07-12.79-1.56a43.46,43.46,0,0,0-6.13-.62l-.07-.06Z"/></g></g></svg>