<svg xmlns="http://www.w3.org/2000/svg" viewBox="0 0 52.95 46.38"><defs><style>.cls-1{fill:#fdcc69;}</style></defs><g id="Capa_2" data-name="Capa 2"><g id="Capa_1-2" data-name="Capa 1"><path class="cls-1" d="M33.07,15.75c-2.08-2.34-4.4-4.45-6.58-6.69a5.35,5.35,0,0,1-1.71-3.65,4.81,4.81,0,0,1,2.94-5,5,5,0,0,1,5.7,1.14c3.26,3.22,6.49,6.47,9.73,9.71,2.7,2.7,5.41,5.39,8.1,8.11a5.07,5.07,0,0,1,0,7.53q-8.89,8.94-17.83,17.83a4.92,4.92,0,0,1-5.4,1.3,4.73,4.73,0,0,1-3.35-4.3,5.26,5.26,0,0,1,1.63-4.29l6.13-6.14c.21-.22.39-.47.59-.71l0-.08,0,.1a54,54,0,0,0-6.95.7c-4.23.47-8.46,1-12.68,1.55-3.55.43-7.09.89-10.64,1.25-2,.2-2.81-.62-2.81-2.59V14.83c0-2,.83-2.8,2.81-2.6,3.79.4,7.57.88,11.35,1.34,4.27.51,8.52,1.07,12.79,1.55a42,42,0,0,0,6.13.62l.07.06Z"/></g></g></svg>